<svg id="Layer_1" data-name="Layer 1" xmlns="http://www.w3.org/2000/svg" xmlns:xlink="http://www.w3.org/1999/xlink" viewBox="0 0 1137 476"><defs><style>.cls-1{fill:#b39e70;}.cls-2,.cls-7{fill:none;}.cls-3{clip-path:url(#clip-path);}.cls-4{clip-path:url(#clip-path-2);}.cls-5,.cls-8{fill:#c33134;}.cls-13,.cls-6,.cls-9{fill:#fff;}.cls-7{stroke:#fff;stroke-width:3px;}.cls-13,.cls-14,.cls-8,.cls-9{isolation:isolate;}.cls-8{font-size:44.92px;}.cls-13,.cls-8,.cls-9{font-family:RobotoSlab-Bold, Roboto Slab;font-weight:700;}.cls-9{font-size:48.83px;}.cls-10{letter-spacing:-0.09em;}.cls-11{letter-spacing:-0.07em;}.cls-12{letter-spacing:0em;}.cls-13{font-size:94.52px;}.cls-14{font-size:36.78px;fill:#e6e7e8;font-family:Roboto-Black, Roboto;font-weight:800;letter-spacing:0.16em;}.cls-15{fill:#f8f8f8;}.cls-16{fill:#010101;}.cls-17{fill:#b7a170;}</style><clipPath id="clip-path"><path class="cls-1" d="M1112.05,474H25A23,23,0,0,1,2,451V24.9a23,23,0,0,1,23-23h1087.1a23,23,0,0,1,23,23V451A23,23,0,0,1,1112.05,474Z"/></clipPath><clipPath id="clip-path-2"><path class="cls-2" d="M1112.05,474H25A23,23,0,0,1,2,451V24.9a23,23,0,0,1,23-23h1087.1a23,23,0,0,1,23,23V451A23,23,0,0,1,1112.05,474Z"/></clipPath></defs><path class="cls-1" d="M1112.05,474H25A23,23,0,0,1,2,451V24.9a23,23,0,0,1,23-23h1087.1a23,23,0,0,1,23,23V451A23,23,0,0,1,1112.05,474Z"/><g class="cls-3"><rect class="cls-1" x="-29.35" y="-22.3" width="1214" height="529.4"/></g><g class="cls-4"><path class="cls-5" d="M1133.75,238H264.45a38,38,0,0,0-38,38V519.2a38,38,0,0,0,38,38h869.4a38,38,0,0,0,38-38V276A38.07,38.07,0,0,0,1133.75,238Z"/></g><g class="cls-4"><path d="M1090.65,451H88.75a25.33,25.33,0,0,1-25.3-25.3V50.2a25.33,25.33,0,0,1,25.3-25.3h1001.9A25.33,25.33,0,0,1,1116,50.2V425.7A25.27,25.27,0,0,1,1090.65,451ZM88.85,34a16.3,16.3,0,0,0-16.3,16.3V425.8a16.3,16.3,0,0,0,16.3,16.3h1001.9a16.3,16.3,0,0,0,16.3-16.3V50.3a16.3,16.3,0,0,0-16.3-16.3Z"/></g><g class="cls-4"><path class="cls-6" d="M240.35,521.9H240c-11-.4-21.9-1.3-32.4-2.7l2.4-18.8c9.9,1.3,20.2,2.1,30.6,2.5a265.55,265.55,0,0,0,81.8-12.9l5.9,18.1A286.92,286.92,0,0,1,240.35,521.9ZM153,507.6c-40.4-12.4-75.9-32.4-105.6-59.6l12.8-14c27.6,25.2,60.7,43.9,98.3,55.4ZM10.15,405.8c-23.1-32.5-39.3-71.1-47-111.7l18.7-3.5c7.2,37.9,22.3,74,43.8,104.3Zm-33.3-167.5h-19V238a297.15,297.15,0,0,1,24.4-118.3l17.4,7.6A279.37,279.37,0,0,0-23.15,238ZM25.25,81.6l-15.5-11a263.23,263.23,0,0,1,90.8-80.5l9,16.7A248.46,248.46,0,0,0,25.25,81.6ZM158-13.3l-5.6-18.1a342.31,342.31,0,0,1,87.7-14.5h.4a291.83,291.83,0,0,1,32.4,1.8l-2.1,18.9a272.84,272.84,0,0,0-30-1.7A321.55,321.55,0,0,0,158-13.3Z"/></g><g class="cls-4"><rect class="cls-6" x="-55.85" y="-54.6" width="296.3" height="312.5"/></g><g class="cls-4"><rect class="cls-5" x="-55.85" y="239.3" width="296.3" height="312.5"/></g><path id="SVGID" class="cls-7" d="M1112.05,474H25A23,23,0,0,1,2,451V24.9a23,23,0,0,1,23-23h1087.1a23,23,0,0,1,23,23V451A23,23,0,0,1,1112.05,474Z"/><circle class="cls-6" cx="240.35" cy="238" r="236.1"/><circle class="cls-5" cx="240.35" cy="238" r="192.4"/><text class="cls-8" transform="translate(579.68 138.15)">FINN SHIELDS</text><text class="cls-9" transform="translate(579.18 192.34)">SAN DIEGO S<tspan class="cls-10" x="304.54" y="0">T</tspan><tspan class="cls-11" x="333.07" y="0">A</tspan><tspan class="cls-12" x="364.57" y="0">TE</tspan></text><text class="cls-13" transform="translate(583.98 350.63)">MCLA </text><text class="cls-14" transform="translate(581.52 391.85)">Class of 2024</text><path class="cls-15" d="M244.37,74.11a271.31,271.31,0,0,1,49.49,25.81c18.55,16.13,37.41,34.21,44.74,58.43-2,.36-3.91.68-5.87,1-4.8-6.26-9.39-12.72-14.86-18.43a178,178,0,0,0-14.6-13.4,106.48,106.48,0,0,0-23.79-13.16c-2.24-.95-3.9-2.77-5.69-4.35-9.71-8.57-20.92-15.22-32.43-21.06,2.17-.9,4.36-1.74,6.53-2.64C247.32,82.08,245.46,78.2,244.37,74.11Z"/><path class="cls-15" d="M161.76,106.35c39.81,4.8,79.54,18.2,111,43.72,4.37,4,8.9,7.86,13,12.15a6.72,6.72,0,0,1-7.7.48c-12.19-7.36-25.61-13-39.64-15.62,3.56,2.8,8,4.14,11.88,6.33,8.4,4.54,16.93,9,24.69,14.56a18.43,18.43,0,0,1-10.58.51c-13.2-2.76-26.26-6.67-38.35-12.73-9-4.48-17.71-9.56-26.3-14.79-7.84-3.74-16-6.78-24-10.11-3.44-1.84-5.79,2-8.37,3.62l-.18-4.72c-4.09-.41-8.38-.57-12.13-2.42,3-3.6,6.91-6.14,10.42-9.14C164.31,114.21,162.68,110.39,161.76,106.35Z"/><path class="cls-15" d="M288.32,124.63A88.9,88.9,0,0,1,325,159.11c-7.9,1-15.69-2.74-21.28-8.08C299.81,141.55,294,133.11,288.32,124.63Z"/><path class="cls-15" d="M234.2,165.82c6.53,1.26,12.61,4.14,19.05,5.78,3.15,1,6.67,1.13,9.43,3.14-4.23,1.81-8.76.66-13.13.24.84,2,1.89,4,2.9,5.92l-3.79,2.93A124.57,124.57,0,0,0,234.2,165.82Z"/><path class="cls-15" d="M69.58,178.63c16.6-6.93,34.31-11.45,52.31-12.31,5.53-.3,10.67,2,15.73,3.9,11,4.24,22.41,7.34,33.49,11.4-9.44.63-18.77-2.07-28.2-1-8.39,1.13-16.89,0-25.3.88-13.55,1.37-27.45,3.08-39.84,9.06,5.44.21,10.7-1.42,16.08-2A351.14,351.14,0,0,1,147,186.65c2.66.11,5.3.5,7.94.85a228.72,228.72,0,0,0-63.53,24.05,20.13,20.13,0,0,1-10.56,3,110.12,110.12,0,0,1-17.59-1.22c.48-8.13,2-16.45,6.43-23.41a46.33,46.33,0,0,0-5.86-7.23A15.61,15.61,0,0,1,69.58,178.63Z"/><path class="cls-15" d="M184.71,210.53a86.49,86.49,0,0,1,41.67,4.2c-.62,2-1.26,4-2,5.93-6.76,0-13.92,1-20.25-2S191.2,213.22,184.71,210.53Z"/><path class="cls-15" d="M145.78,217.21c8.49-3,17.42-4.22,26.25-5.73a49.9,49.9,0,0,1,9.28,7.62C169.46,218.53,157.63,217.82,145.78,217.21Z"/><path class="cls-15" d="M302.84,222.46c4.17-1.26,8.45-2.35,12.85-2.2-.28,1.84-.57,3.67-.8,5.51a29.1,29.1,0,0,1,9.49.49L320.91,228c-1,.5-2,1-3,1.52l-2.08,1.17c3.39,5.79,12.07,6.5,16.71,1.91,2-1.63,2.45-4.27,3.07-6.62a83.93,83.93,0,0,1,8.52,2.08c-7.27,9.71-21.86,13.38-32.5,7.13C307,232.4,304.18,227.54,302.84,222.46Z"/><path class="cls-15" d="M239.21,225.25a44.66,44.66,0,0,1,52.38,35.17,44.68,44.68,0,0,1-4.75,30.48c-7.51,13.53-22.39,22.8-37.95,22.88a43.88,43.88,0,0,1-31.23-11.63,44.79,44.79,0,0,1-14.22-38.84C205.6,244.68,220.76,228.55,239.21,225.25Zm1.14,2.45a42,42,0,0,0-13.82,77.56,41.64,41.64,0,0,0,28.66,5.13,42,42,0,0,0-14.84-82.69Z"/><path class="cls-15" d="M115.66,229.76c1.19-.56,2.58-2,4-.95a258.24,258.24,0,0,1,26.47,14.51c-7.16,3.73-15.47,5.91-21.38,11.62,8.77-2.3,17-6.4,25.91-8.45-2.82,2.39-6.28,3.78-9.36,5.77-9.73,6.05-18.58,13.37-27.38,20.66-5.71,4.74-10,11.11-16.37,15.05-1-8.72.37-17.43,1.53-26.06.32-1.41-1.11-2.35-2-3.19-3.68-2.78-7.68-5.18-11-8.47C94.87,242,105.41,236,115.66,229.76Z"/><path class="cls-15" d="M157.72,231c17.33,1.93,34.21,6.67,51.38,9.62-2.1,3.9-4.37,7.71-6.11,11.79C187.58,246,172.83,238.1,157.72,231Z"/><path class="cls-15" d="M233.8,238.51c6.52,0,13-.22,19.57.09a12,12,0,0,1,2.18,3.44c7,15.23,14.36,30.29,21.35,45.52-9.14.15-18.3.17-27.44,0-1.34-4.4-2.89-8.77-3.52-13.34,3,.11,6,.34,9,.5A124.86,124.86,0,0,0,247.68,259a83.21,83.21,0,0,0-7.27,17c.73,4,2.24,7.77,3.26,11.69-8,.08-16,.06-24,0,5.46-13.76,12.05-27.05,17.83-40.69C236.23,244.11,234.94,241.34,233.8,238.51Zm2,1.23c.7,3.1,4,6.17,2.08,9.37-5.49,12.42-11.13,24.76-16.52,37.22,6.84.15,13.68.13,20.52,0-.66-4.67-4.49-9.5-1.76-14.12,2.55-5.59,4.61-11.41,7.49-16.85,3.28,6.91,6.56,13.84,9.44,20.93-3.29-.12-6.54-.68-9.82-.84,1,3.7,2.11,7.37,3.28,11,8.12,0,16.24,0,24.36-.11-7.17-15.63-14.65-31.12-22-46.66C247.21,239.7,241.52,239.61,235.84,239.74Z"/><path class="cls-15" d="M157.45,289.7c14-6.35,28.37-11.89,42.61-17.69a105.54,105.54,0,0,0,2.51,12.45C187.58,286.5,172.54,288.61,157.45,289.7Z"/><path class="cls-15" d="M363.54,285.48c1.34-.16,2.68-.29,4-.4l-.12,2.53c-1.39,0-2.76,0-4.13,0C363.37,287.07,363.48,286,363.54,285.48Z"/><path class="cls-15" d="M211.09,299.76c3.06,2.81,6,5.76,9.29,8.32-9.29,10.8-18.51,21.7-28.58,31.79C197.49,326.16,204.79,313.19,211.09,299.76Z"/><path class="cls-15" d="M154.75,308.74c.71-1.2,1.84-2.29,3.35-2.06,6-.1,12-.58,18.08-.65-7.41,6.67-15.67,12.38-22.74,19.42,6.16-2.38,11.82-5.86,17.93-8.33-2,5.83-7.19,10.36-7.46,16.79,4.71-6.59,9.23-13.33,14.31-19.64,2.09-2,5.09-2.64,7.73-3.65a120.6,120.6,0,0,1-4,11.52c-5.1,13.24-10,26.55-15,39.8-3.27-5.57-5.37-11.7-7.31-17.83a40.75,40.75,0,0,1-17.14-4.8c-2.23-.95-1.24-3.68-.48-5.31C146.12,325.52,149.58,316.67,154.75,308.74Z"/><path class="cls-16" d="M178.25,36.25c11,4.75,21.08,11.42,32.15,16,13.29,5.54,26.67,10.89,40.21,15.79a164,164,0,0,1,2.94-19.37c2.41.92,4,3,5.77,4.76,6,6.32,13.68,10.93,21.67,14.36,7.78,2.91,15.58,5.93,22.71,10.25C324,90.22,341,108.54,350.26,130.42c2.5,5.9,7.64,10.11,10.26,16,7.77,3.57,11.53,12.4,11.87,20.54.29,4.85-1.22,9.54-3.13,13.93A90.06,90.06,0,0,1,373,191.57c4.67,1.8,9,6,8.75,11.34.41,3.87-2.38,6.82-4.2,9.9A17.84,17.84,0,0,0,388.81,217c17.23.91,34.89.24,51.51,5.63,10.11,3.24,20.23,8.48,26.35,17.48a35.91,35.91,0,0,1,5.14,30.6c-2.73,10.83-11.15,19.23-20.67,24.53.92-7.46,1-15.36-2.45-22.24-4.82-10.35-15.71-16.81-26.83-18-12.69-1.5-25.52,1-37.68,4.52a27.68,27.68,0,0,1,.8,14.63c-.71,2.77-1.14,5.83.21,8.49q7.69,16.08,16.24,31.75c1.62,2.6.94,5.95-.6,8.42-2.14,1.74-5.12,2-7.17,3.89-2,2.27-1.31,5.47-1.37,8.23.29,2.35-1.69,4-2.64,6,1.74,2.58,4.4,5.42,3.25,8.81-1.23,3.22-5.6,3.2-7.27,6-1.38,4.41-.35,9.31-2.42,13.54-2.18,5.1-7.21,8.47-12.51,9.64-7.55,1.76-15.16-1.06-22.74-.2-2.89.64-6.41,2.83-6,6.23.37,3.86,2.09,7.46,4,10.8,1.65,2.85,4.85,4.07,7.28,6.1a50.54,50.54,0,0,1-12.29.44c-7.91-1.75-13.92-7.51-20.08-12.36-6.69-5.26-12.44-11.6-19.22-16.74a225.9,225.9,0,0,0-39-23.89c-14.54-6.3-29.7-12.36-45.77-12.5-2.21.56-3.46,2.63-5,4.1-15.34,15.33-29.92,31.4-44.9,47.07-4.89,4.93-9,10.71-14.63,14.87,2-9.09,6.71-17.35,9-26.37-6.16,4.05-11.56,9.17-17.91,13-7.54,4.5-15,9.15-22.75,13.33,2.67-23.12,7.24-46.28,16.47-67.75a136.2,136.2,0,0,0,5.77-15.83c-25.63,8.81-51.47,18.32-78.69,20.6,2.66-6.77,6.73-12.84,10.4-19.08q6.68-11.32,14.1-22.18c-16.59,1.9-33.41.64-49.74-2.68,3.56-11.48,11.31-20.87,18.37-30.35A93,93,0,0,1,31,260.36c8.71-11,17.85-21.74,28.89-30.43,3.41-2.76,7.11-5.19,10.22-8.3-18.07-2.82-36.5-3-54.51-6.47,5.51-8.72,12.82-16.16,20.1-23.41,4.86-5,10.78-8.78,16.7-12.39,5.08-3.1,10.72-5.13,15.74-8.33-4.53-3.92-10.65-5.43-14.91-9.72,4.83-5.89,12.12-8.51,18.41-12.4-5.46-1.92-11-3.74-16.4-5.76.06-.35.19-1.05.25-1.4C69,134.63,83.63,129.31,98.83,127.2c6.71-1.1,13.52-1.51,20.21-2.69-5-6.06-11.45-11.05-15.27-18,14.25-5,29.37-7.43,44.44-8.14-6.39-6.79-14.36-12.22-19.61-20,20.44-5.56,42-6.84,63-5.13C184.64,62,178.84,49.63,178.25,36.25Zm66.12,37.86c1.09,4.09,2.95,8,3.52,12.19-2.17.9-4.36,1.74-6.53,2.64,11.51,5.84,22.72,12.49,32.43,21.06,1.79,1.58,3.45,3.4,5.69,4.35a106.48,106.48,0,0,1,23.79,13.16,178,178,0,0,1,14.6,13.4c5.47,5.71,10.06,12.17,14.86,18.43,2-.31,3.92-.63,5.87-1-7.33-24.22-26.19-42.3-44.74-58.43A271.31,271.31,0,0,0,244.37,74.11ZM192.85,81.2c1.36,4,3.3,7.82,4.82,11.79-4,3.83-8.91,6.8-11.92,11.56,6.1,1.9,12.41,3,18.48,5a254.6,254.6,0,0,1,39,15.06c9.64,4.69,18.51,10.72,27.69,16.22-6-7.4-14-12.67-21.08-18.88-4.65-4.1-10-7.38-14.08-12.14a27.49,27.49,0,0,1,8.79,3.48c15.72,9.26,31.12,20,42.18,34.76,2.54,3.21,4.19,7,6.76,10.22,1.55,1.88,4.28,1.56,6.46,2-.66-4.85-2.63-9.37-4.66-13.78a95.47,95.47,0,0,0-23-30.91c-18.41-16.64-42-26.43-65.9-32.18A49.79,49.79,0,0,0,192.85,81.2Zm99.3-.51c.37,2.09.8,4.17,1.22,6.25-1.85.78-3.7,1.57-5.53,2.38,3,2.62,6.33,4.79,9.55,7.12a157.57,157.57,0,0,1,27.95,27c8.59,10.1,14.6,22.05,19.73,34.19l2.39-.28c1.15-16.16-5.85-31.93-15.55-44.51-5.22-6.39-10.35-13-17-18C308,89.26,300.8,83.43,292.15,80.69ZM161.76,106.35c.92,4,2.55,7.86,3.7,11.84-3.51,3-7.45,5.54-10.42,9.14,3.75,1.85,8,2,12.13,2.42l.18,4.72c2.58-1.61,4.93-5.46,8.37-3.62,8,3.33,16.18,6.37,24,10.11,8.59,5.23,17.29,10.31,26.3,14.79,12.09,6.06,25.15,10,38.35,12.73A18.43,18.43,0,0,0,275,168c-7.76-5.59-16.29-10-24.69-14.56-3.91-2.19-8.32-3.53-11.88-6.33,14,2.61,27.45,8.26,39.64,15.62a6.72,6.72,0,0,0,7.7-.48c-4.11-4.29-8.64-8.14-13-12.15C241.3,124.55,201.57,111.15,161.76,106.35Zm126.56,18.28c5.66,8.48,11.49,16.92,15.37,26.4,5.59,5.34,13.38,9.1,21.28,8.08A88.9,88.9,0,0,0,288.32,124.63ZM126.88,132.4c1.92,4,5.78,7.52,5.71,12.15-5.45,4.09-12.28,6.44-16.73,11.83,6.64,3.2,13.77,5.19,20.69,7.69,14.48,4.37,28.41,10.45,43.1,14.18,10.44,3.09,21,5.63,31.6,8.28,6.17,1.57,12.26,3.59,18.62,4.26C224,187,218,183.39,212.13,179.61c-11.83-7.57-24.85-13-37.93-18a16.42,16.42,0,0,1-5.56-3.5,24,24,0,0,1,8.5,1.57c9,3.41,18.35,6.11,27.27,9.83,10.56,4.41,20.64,9.83,30.77,15.11a13.23,13.23,0,0,0,5.61,1.38c-.24-1.88-.27-3.93-1.61-5.41-8.49-10.5-18.84-19.39-29.89-27.09-9.52-6.71-20.16-11.54-30.81-16.14a11.05,11.05,0,0,0-4.35-1.1c-4.11,2-6.77,6.56-11.64,7a81,81,0,0,0-.9-8.8C150.16,132.22,138.48,132,126.88,132.4ZM341.8,163.64c-9.91,1.67-20,.38-29.95,1.49a117.42,117.42,0,0,0-32.85,7c-11,4-20.8,10.71-29.46,18.48a80.33,80.33,0,0,0-11.11,13.82c-3.3,5.26-6.62,10.68-8,16.8q3.13.1,6.28.11c4-10.77,9.76-21.48,19-28.59-2.22,4-5.48,7.25-7.23,11.47,4.87-2.45,8.54-6.61,13-9.69,10.27-7.75,22.32-12.78,34.68-16.14a159.38,159.38,0,0,1,67.62-2.68c1.68-6,3.07-13.65-1.78-18.6A66.23,66.23,0,0,1,341.8,163.64Zm-107.6,2.18a124.57,124.57,0,0,1,14.46,18l3.79-2.93c-1-2-2.06-3.88-2.9-5.92,4.37.42,8.9,1.57,13.13-.24-2.76-2-6.28-2.14-9.43-3.14C246.81,170,240.73,167.08,234.2,165.82ZM69.58,178.63a15.61,15.61,0,0,0-5.72,4.05,46.33,46.33,0,0,1,5.86,7.23c-4.46,7-5.95,15.28-6.43,23.41a110.12,110.12,0,0,0,17.59,1.22,20.13,20.13,0,0,0,10.56-3A228.72,228.72,0,0,1,155,187.5c-2.64-.35-5.28-.74-7.94-.85a351.14,351.14,0,0,0-53.18,1.86c-5.38.6-10.64,2.23-16.08,2,12.39-6,26.29-7.69,39.84-9.06,8.41-.91,16.91.25,25.3-.88,9.43-1,18.76,1.66,28.2,1-11.08-4.06-22.48-7.16-33.49-11.4-5.06-1.88-10.2-4.2-15.73-3.9C103.89,167.18,86.18,171.7,69.58,178.63ZM339,184.44a30.73,30.73,0,0,0,9.91,1.76c-1.23-3-2.79-7.59-6.86-6.94C339.39,179.46,339.25,182.42,339,184.44Zm-26.32-2.66c1.63.17,3.27.3,4.92.41,0-.58-.13-1.74-.18-2.32A14,14,0,0,0,312.66,181.78Zm12.69-1.57c-.06.69-.19,2.06-.25,2.75q3.13.38,6.29.7c.06-.66.16-2,.21-2.63A6.4,6.4,0,0,0,325.35,180.21Zm31.07,8.18c2.57,1.1,5.39,1.38,8.11,1.89-.51-3.56-1.66-9.51-6.41-9C354.44,181.27,354.38,186.37,356.42,188.39Zm-91.75,11.34c-5.88,3.93-11.88,8.12-15.89,14.06,4.91-1.86,9.33-4.73,14-7,13-6.48,27.38-9.35,41.64-11.26a143.94,143.94,0,0,1,61.39,9.5,33.62,33.62,0,0,0,6.78,1.83c.87-1.63,2.49-3.33,1.7-5.32-1.09-1.68-3.11-2.37-4.87-3.1-16.66-5.57-33.94-9.58-51.54-10.26C299.56,186.53,280.59,190.33,264.67,199.73Zm-152.06,7c-4.84,2.19-9.81,4.29-14,7.6,9.12.26,18.2,1.27,27.32,1.73,6.27.27,12-2.56,18-4.12,7-2.08,14.23-3.23,21.3-5.05-2.18-2.27-4.48-4.42-6.63-6.71,4.66,1.16,8.87,3.53,13.4,5,6.3,1,12.62-.8,18.94-.83,7-.1,14.06-.37,21,.64,4.17.33,8.71,1.64,12.67-.37,2.54-1.36,5.77-2.7,6.67-5.69a10,10,0,0,0-3.48-1.84,175.88,175.88,0,0,0-33.86-6.54C166,189.19,137.94,195.11,112.61,206.72Zm180.51-3.6c-12.67,2.23-25.5,5.56-36.38,12.69,15.65,2.67,31.84,4,47.54.95-5.86-3.94-13.67-2.06-19.75-5.29,15.81-1.61,31.27,3,46.19,7.63,8.83,2.32,18.22,5.64,27.34,3,4.29-1.12,7-4.87,10.3-7.47-.47,3.21-1.54,6.52-4.06,8.73-3.49,3.3-8.39,4.06-12.87,5.15-3.46.74-5.42,3.93-7.67,6.35-5.29,6.11-12.74,10.6-20.88,11.37-6.34.69-13.74.15-18.17-5,4.83.43,9.66,1.44,14.53.75-5.14-2.58-10.9-4.19-15.23-8.16-3.4-2.89-5.26-7-7-11-13.8-1.45-27.79-1.64-41.39-4.62-2.25-.79-3.82,1.18-5.16,2.62,4.32.7,8.71,1.2,12.84,2.72A49.15,49.15,0,0,1,294,256.79,47.8,47.8,0,0,1,288,295a48.35,48.35,0,0,1-30.3,20.86c-7.11,1.63-14.44.74-21.61.09a101.13,101.13,0,0,0-7.58,9.07c23.32,7.7,44.05,21.25,63.92,35.38,13.69,9.85,25.6,21.83,38.15,33-7.69-19.73-16.38-39.28-28.21-56.92-5.15-7.7-11.51-14.47-17.82-21.21-1.38-1.83-3.63-3.58-3.42-6.09a20.08,20.08,0,0,1,3.15-3.86,56.46,56.46,0,0,0,15-29.11c.86-4.88.62-9.85,1-14.77,6.16-1.79,12.34-3.55,18.39-5.7,16.73-6,34.12-13.31,45.44-27.67,2.86-4.1,6.71-7.37,9.73-11.31,0-4.65-5.55-4.77-8.76-6.13a161.53,161.53,0,0,0-47.12-9.95C309.57,200.46,301.31,201.8,293.12,203.12Zm-117.54,6.76c3.2,4,7.53,6.7,11.43,9.89,7.83,6.19,15.83,12.17,23.89,18.06a87.67,87.67,0,0,0,9.7-9c-6.08-3.45-12.7-5.77-19.08-8.56C192.9,216.76,184.45,212.72,175.58,209.88Zm9.13.65c6.49,2.69,13,5.21,19.44,8.15s13.49,2,20.25,2c.72-2,1.36-3.94,2-5.93A86.49,86.49,0,0,0,184.71,210.53Zm-38.93,6.68c11.85.61,23.68,1.32,35.53,1.89a49.9,49.9,0,0,0-9.28-7.62C163.2,213,154.27,214.26,145.78,217.21Zm-53.69-.07c-1.12.88-3.47,1.54-2.76,3.37,4.53,3.74,9.69,6.66,14.56,9.94a42.88,42.88,0,0,0,8.1-5.58,134.48,134.48,0,0,0-14.28-7.82A5.28,5.28,0,0,0,92.09,217.14Zm17.42,1.72c5.46,4.33,12,6.91,18,10.38,15.48,8.51,31.37,16.29,46.49,25.44,2.56,1.4,5.59.75,8.35.46,4.64-.79,9.37-1,14-2.11a53.83,53.83,0,0,0-5.43-3.18c-14.34-7.13-28.81-14-43.3-20.82a29.45,29.45,0,0,1-5.1-3.3c5.24-.44,10.29,1.45,15.42,2.22,14.9,2.73,29.67,6.26,44.64,8.62-3.08-4.4-7.85-7.08-11.81-10.58-1.77-1.37-3.51-3.15-5.86-3.34C159.77,221.6,134.69,218.88,109.51,218.86ZM379.84,220c-7.78,2.49-11.73,10.23-17.51,15.39-9.85,10.1-23,15.94-35.84,21.18-6.36,2.6-13.05,4.43-19.18,7.57,3.22,2.89,7.33,4.37,11.17,6.21,2.59,1.1,5.42,2.43,8.3,1.68,4.82-1.14,9.23-3.49,13.88-5.14,22.4-8.36,45.31-16.15,69.17-19a45.77,45.77,0,0,1,42.57,18.49c4.2,5.59,4.83,12.67,6.29,19.27,5.57-4.13,8.72-10.62,10.7-17.1,3-11.68-2-24.44-10.91-32.26-9.59-8.57-22.33-12.39-34.82-14.19-7.56-1.13-15.21-.23-22.8-.52C393.9,220.86,386.83,217.87,379.84,220Zm-77,2.5c1.34,5.08,4.2,9.94,8.76,12.74,10.64,6.25,25.23,2.58,32.5-7.13a83.93,83.93,0,0,0-8.52-2.08c-.62,2.35-1.08,5-3.07,6.62-4.64,4.59-13.32,3.88-16.71-1.91l2.08-1.17c3.25,1.5,7.07,4.32,10.67,2.11,2.57-1.33,3.14-4.28,3.25-6.9-1.39,1.78-2.31,4-4.11,5.42a5.4,5.4,0,0,1-6.78-2.15l3.47-1.75a29.1,29.1,0,0,0-9.49-.49c.23-1.84.52-3.67.8-5.51C311.29,220.11,307,221.2,302.84,222.46Zm-82.22,1.92a4.81,4.81,0,0,0,7.55.54A38.28,38.28,0,0,0,220.62,224.38Zm18.59.87c-18.45,3.3-33.61,19.43-35.77,38.06a44.79,44.79,0,0,0,14.22,38.84,43.88,43.88,0,0,0,31.23,11.63c15.56-.08,30.44-9.35,37.95-22.88A44.83,44.83,0,0,0,272.73,232,44.19,44.19,0,0,0,239.21,225.25Zm-123.55,4.51C105.41,236,94.87,242,86.09,250.25c3.28,3.29,7.28,5.69,11,8.47.87.84,2.3,1.78,2,3.19-1.16,8.63-2.49,17.34-1.53,26.06,6.34-3.94,10.66-10.31,16.37-15.05,8.8-7.29,17.65-14.61,27.38-20.66,3.08-2,6.54-3.38,9.36-5.77-8.88,2-17.14,6.15-25.91,8.45,5.91-5.71,14.22-7.89,21.38-11.62a258.24,258.24,0,0,0-26.47-14.51C118.24,227.8,116.85,229.2,115.66,229.76ZM157.72,231c15.11,7.08,29.86,15,45.27,21.41,1.74-4.08,4-7.89,6.11-11.79C191.93,237.69,175.05,233,157.72,231Zm-15.87,27.54c9.14-.12,18.19-1.47,27.26-2.47a46,46,0,0,0-11.26-6.56A79.77,79.77,0,0,0,141.85,258.56Zm44.27-1.43c-11.77,1.49-23.75,1.58-35.37,4.15,13,2.15,26.1,3.82,39.15,5.79a75.48,75.48,0,0,0,9.85.69c.62-3.92,1.21-7.84,1.6-11.78C196.26,256.24,191.17,256.44,186.12,257.13Zm-52.3,6.75C122.9,272,112.61,281.2,104.23,292c2.51,2.21,5.31,4.33,8.67,4.95,3.79-.71,7.07-2.92,10.53-4.51,5.8-3.05,12.1-5.45,16.92-10.06,6.79-6.17,15.14-10.3,21.94-16.41-6.11-1.56-12.45-1.75-18.63-2.91C140.4,262.51,136.59,261.35,133.82,263.88Zm199.91,13c-4.18,1.17-6.09,5.45-7.79,9-2.84,7-5.75,14.22-5.79,21.89-.76,14.13,3.94,27.75,9.11,40.67,1.89,4.56,2.49,10.13,6.61,13.39,4.34,3.3,9.55,5.13,14.31,7.71,6.12,3.13,13.25,5.91,20.15,3.67,3.86-1.31,8.49-3.76,8.7-8.39.39-3.59,1.21-7.11,1.73-10.67-5-2-10.34-.6-15.51-.46,5.46-7.36,15.74-6.26,23.84-6.31a21.66,21.66,0,0,0-.7-6,76,76,0,0,0-21.45-.57c-3.72.32-6.95,2.2-10,4.18,1.32-3.09,2.69-6.16,4-9.24,1,1.17,1.45,3.06,3,3.62a56.56,56.56,0,0,0,7.9-.52c5.88-.64,11.81,0,17.7-.63-.63-3.85-.84-7.77-1.67-11.56-2.39-1.39-5.24-1.73-7.58-3.19-.4-1.4-.65-2.82-.92-4.22-1.7-.74-4.3-.76-4.68-3,3.08-.06,7.51-.67,8.93,2.9a9.81,9.81,0,0,0,6.24,6.16,27.25,27.25,0,0,0,9.26-5.22c2.43-2.48.11-5.87-1.15-8.32-5.78-9.23-10-19.31-15.1-28.9-3-4.68,1.09-9.89-.18-14.84-.51-2.6-2.15-4.74-3.67-6.83C363.63,265.52,349,272.1,333.73,276.91Zm-158.64-6.84c-17.92,9.16-36.06,17.86-53.92,27.13-5.54,2.95-11.49,5.21-16.54,9,7.76.8,15.46-.79,23.22-.83,4.89-.1,9.79-.17,14.65-.74,12.09-1,24.25-.79,36.32-2.1,2.5-.1,4.32-2,6.21-3.42,4.37-3.7,9.39-6.66,13.17-11-10.56.17-21,2.3-31.46,3.38-8.08.71-16.1,2.44-24.25,2,17-8.55,35.39-13.93,52.27-22.69C188.4,269.71,181.18,266.43,175.09,270.07Zm129.28-.69A27.68,27.68,0,0,0,303,276c-1.19,8.31-3.57,16.64-8.38,23.62-1.54,2.71-4.57,5.83-2.58,9.09,4.61,8.72,9.14,17.5,13.9,26.15a384.33,384.33,0,0,1,24.6,50.41c2.14,4.74,4.74,9.87,9.76,12.11a48.49,48.49,0,0,0-1.7-10.09c-5.11-21.4-14.45-41.43-22-62a53.84,53.84,0,0,1-3.1-21.41c.6-7.12,4.1-13.56,8.11-19.32,1.37-2.16,3.37-5.26,1.35-7.64-3.65-3.75-8.77-5.54-13.48-7.53C307.83,269,305.61,267.57,304.37,269.38ZM157.45,289.7c15.09-1.09,30.13-3.2,45.12-5.24A105.54,105.54,0,0,1,200.06,272C185.82,277.81,171.45,283.35,157.45,289.7Zm32.28,9.09c-5.48,4.69-11.7,8.59-16.48,14,4.16-1,8-3,11.88-4.76,7.76-3.7,15.61-7.22,23.28-11.12-1.42-3-3-5.87-4.66-8.71C198.63,291.14,194.4,295.27,189.73,298.79Zm21.36,1c-6.3,13.43-13.6,26.4-19.29,40.11,10.07-10.09,19.29-21,28.58-31.79C217.09,305.52,214.15,302.57,211.09,299.76ZM191.87,308c-1.64.76-2.35,2.47-3,4.06-7.61,20.91-15.67,41.66-23.48,62.5-2,5.43-4.52,10.69-5.62,16.39,23.75-23.28,46-48,69.08-72a20.72,20.72,0,0,0,3-4.53c-2.92-1.48-5.91-2.84-9-4-4.24,3.64-7.76,8-11.53,12.09-8,9-15.87,18.11-24.34,26.67a30.27,30.27,0,0,1-4.12,3.17c.43-1.35.87-2.69,1.41-4,7.29-15.76,16.27-30.77,22.49-47A76.8,76.8,0,0,0,191.87,308Zm-37.12.79c-5.17,7.93-8.63,16.78-12.75,25.26-.76,1.63-1.75,4.36.48,5.31a40.75,40.75,0,0,0,17.14,4.8c1.94,6.13,4,12.26,7.31,17.83,5-13.25,9.93-26.56,15-39.8a120.6,120.6,0,0,0,4-11.52c-2.64,1-5.64,1.62-7.73,3.65-5.08,6.31-9.6,13.05-14.31,19.64.27-6.43,5.47-11,7.46-16.79-6.11,2.47-11.77,5.95-17.93,8.33,7.07-7,15.33-12.75,22.74-19.42-6,.07-12.05.55-18.08.65C156.59,306.45,155.46,307.54,154.75,308.74Zm-31.63.46a57.55,57.55,0,0,0,.63,10.73,189.7,189.7,0,0,0,24.46-9.54c.14-.68.43-2,.57-2.7C140.23,308,131.58,307.79,123.12,309.2Z"/><path class="cls-16" d="M377,224c.69-.71,1.39-1.41,2.09-2.12.21,1.32.43,2.63.65,4,2.69-2.87,6.49-3.84,10.32-3.58-3,1.67-5.89,3.49-8.86,5.18C379.21,227.23,378.14,225.32,377,224Z"/><path class="cls-16" d="M240.35,227.7a42,42,0,0,1,14.84,82.69,42,42,0,0,1-45.31-59.46A42.35,42.35,0,0,1,240.35,227.7Zm.87,6.61c-13.56,2.46-24.91,13.69-27.72,27.16-3.76,15.07,4.25,31.85,18,38.92a35.32,35.32,0,0,0,49.08-16.77c4-8.46,3.93-18.51.84-27.24C275.54,240.69,257.67,230.62,241.22,234.31Z"/><path class="cls-16" d="M235.84,239.74c5.68-.13,11.37,0,17.06,0,7.36,15.54,14.84,31,22,46.66-8.12.12-16.24.09-24.36.11-1.17-3.64-2.28-7.31-3.28-11,3.28.16,6.53.72,9.82.84-2.88-7.09-6.16-14-9.44-20.93-2.88,5.44-4.94,11.26-7.49,16.85-2.73,4.62,1.1,9.45,1.76,14.12-6.84.12-13.68.14-20.52,0,5.39-12.46,11-24.8,16.52-37.22C239.89,245.91,236.54,242.84,235.84,239.74Z"/><path class="cls-16" d="M357.72,271.78c2.34-.69,4.58-2.19,7.06-2.1,4.72,2.38,8.81,5.84,13.64,8.06-1.05,2.15-1.18,4.51-1.41,6.84-2.27,6.62-5.18,13.42-11.22,17.46a36.93,36.93,0,0,0,3.64-6.93c-3.21-.1-6.43.05-9.64.06-3.2.37-5.25-2.54-7.8-3.91,2.24-4,5.14-8.43,9.92-9.53,3.86-.42,7.49,1.36,11.24,2-2.59-4.07-5.71-8.47-10.31-10.3-5.69.05-10.41,3.9-15.34,6.3C348.36,274.76,353.7,273.41,357.72,271.78Zm5.82,13.7c-.06.53-.17,1.59-.22,2.12,1.37,0,2.74,0,4.13,0l.12-2.53C366.22,285.19,364.88,285.32,363.54,285.48Z"/><path class="cls-16" d="M370.11,309.17a12.51,12.51,0,0,1,10.05-.06,13.22,13.22,0,0,0-10.1,4C370.05,311.79,370.07,310.48,370.11,309.17Z"/><path class="cls-16" d="M325.38,311.1c4.61,3.14,9.33,6.47,15,7.36,7.31,1.79,14.82.84,22.06-.74-6.74,3.74-15.19,1-21.82,5-3.71,2.59-2.9,7.51-2.36,11.36-1.61-4.75-1.65-10-4-14.49C331.47,316.55,327.66,314.6,325.38,311.1Z"/><path class="cls-5" d="M192.85,81.2a49.79,49.79,0,0,1,13.48,2.19c23.89,5.75,47.49,15.54,65.9,32.18a95.47,95.47,0,0,1,23,30.91c2,4.41,4,8.93,4.66,13.78-2.18-.4-4.91-.08-6.46-2-2.57-3.19-4.22-7-6.76-10.22-11.06-14.76-26.46-25.5-42.18-34.76a27.49,27.49,0,0,0-8.79-3.48c4,4.76,9.43,8,14.08,12.14,7.09,6.21,15.11,11.48,21.08,18.88-9.18-5.5-18-11.53-27.69-16.22a254.6,254.6,0,0,0-39-15.06c-6.07-2-12.38-3.13-18.48-5,3-4.76,7.93-7.73,11.92-11.56C196.15,89,194.21,85.23,192.85,81.2Z"/><path class="cls-5" d="M292.15,80.69c8.65,2.74,15.8,8.57,22.79,14.15,6.62,5,11.75,11.64,17,18,9.7,12.58,16.7,28.35,15.55,44.51l-2.39.28c-5.13-12.14-11.14-24.09-19.73-34.19a157.57,157.57,0,0,0-27.95-27c-3.22-2.33-6.56-4.5-9.55-7.12,1.83-.81,3.68-1.6,5.53-2.38C293,84.86,292.52,82.78,292.15,80.69Z"/><path class="cls-5" d="M126.88,132.4c11.6-.43,23.28-.18,34.71,2a81,81,0,0,1,.9,8.8c4.87-.4,7.53-5,11.64-7a11.05,11.05,0,0,1,4.35,1.1c10.65,4.6,21.29,9.43,30.81,16.14,11.05,7.7,21.4,16.59,29.89,27.09,1.34,1.48,1.37,3.53,1.61,5.41a13.23,13.23,0,0,1-5.61-1.38c-10.13-5.28-20.21-10.7-30.77-15.11-8.92-3.72-18.23-6.42-27.27-9.83a24,24,0,0,0-8.5-1.57,16.42,16.42,0,0,0,5.56,3.5c13.08,5,26.1,10.43,37.93,18,5.88,3.78,11.86,7.4,17.74,11.18-6.36-.67-12.45-2.69-18.62-4.26-10.56-2.65-21.16-5.19-31.6-8.28-14.69-3.73-28.62-9.81-43.1-14.18-6.92-2.5-14.05-4.49-20.69-7.69,4.45-5.39,11.28-7.74,16.73-11.83C132.66,139.92,128.8,136.38,126.88,132.4Z"/><path class="cls-5" d="M341.8,163.64A66.23,66.23,0,0,0,362,157.09c4.85,4.95,3.46,12.58,1.78,18.6a159.38,159.38,0,0,0-67.62,2.68c-12.36,3.36-24.41,8.39-34.68,16.14-4.44,3.08-8.11,7.24-13,9.69,1.75-4.22,5-7.52,7.23-11.47-9.23,7.11-15,17.82-19,28.59q-3.15,0-6.28-.11c1.37-6.12,4.69-11.54,8-16.8a80.33,80.33,0,0,1,11.11-13.82c8.66-7.77,18.45-14.51,29.46-18.48a117.42,117.42,0,0,1,32.85-7C321.8,164,331.89,165.31,341.8,163.64Z"/><path class="cls-5" d="M339,184.44c.27-2,.41-5,3-5.18,4.07-.65,5.63,4,6.86,6.94A30.73,30.73,0,0,1,339,184.44Z"/><path class="cls-5" d="M312.66,181.78a14,14,0,0,1,4.74-1.91c.05.58.14,1.74.18,2.32C315.93,182.08,314.29,182,312.66,181.78Z"/><path class="cls-5" d="M325.35,180.21a6.4,6.4,0,0,1,6.25.82c-.05.66-.15,2-.21,2.63q-3.15-.33-6.29-.7C325.16,182.27,325.29,180.9,325.35,180.21Z"/><path class="cls-5" d="M356.42,188.39c-2-2-2-7.12,1.7-7.1,4.75-.52,5.9,5.43,6.41,9C361.81,189.77,359,189.49,356.42,188.39Z"/><path class="cls-5" d="M264.67,199.73c15.92-9.4,34.89-13.2,53.25-11.57,17.6.68,34.88,4.69,51.54,10.26,1.76.73,3.78,1.42,4.87,3.1.79,2-.83,3.69-1.7,5.32a33.62,33.62,0,0,1-6.78-1.83,143.94,143.94,0,0,0-61.39-9.5c-14.26,1.91-28.67,4.78-41.64,11.26-4.71,2.29-9.13,5.16-14,7C252.79,207.85,258.79,203.66,264.67,199.73Z"/><path class="cls-5" d="M112.61,206.72c25.33-11.61,53.41-17.53,81.29-16.14a175.88,175.88,0,0,1,33.86,6.54,10,10,0,0,1,3.48,1.84c-.9,3-4.13,4.33-6.67,5.69-4,2-8.5.7-12.67.37-7-1-14-.74-21-.64-6.32,0-12.64,1.87-18.94.83-4.53-1.51-8.74-3.88-13.4-5,2.15,2.29,4.45,4.44,6.63,6.71-7.07,1.82-14.3,3-21.3,5.05-5.94,1.56-11.69,4.39-18,4.12-9.12-.46-18.2-1.47-27.32-1.73C102.8,211,107.77,208.91,112.61,206.72Z"/><path class="cls-5" d="M175.58,209.88c8.87,2.84,17.32,6.88,25.94,10.41,6.38,2.79,13,5.11,19.08,8.56a87.67,87.67,0,0,1-9.7,9c-8.06-5.89-16.06-11.87-23.89-18.06C183.11,216.58,178.78,213.84,175.58,209.88Z"/><path class="cls-5" d="M92.09,217.14a5.28,5.28,0,0,1,5.62-.09A134.48,134.48,0,0,1,112,224.87a42.88,42.88,0,0,1-8.1,5.58c-4.87-3.28-10-6.2-14.56-9.94C88.62,218.68,91,218,92.09,217.14Z"/><path class="cls-5" d="M109.51,218.86c25.18,0,50.26,2.74,75.41,3.79,2.35.19,4.09,2,5.86,3.34,4,3.5,8.73,6.18,11.81,10.58-15-2.36-29.74-5.89-44.64-8.62-5.13-.77-10.18-2.66-15.42-2.22a29.45,29.45,0,0,0,5.1,3.3c14.49,6.82,29,13.69,43.3,20.82a53.83,53.83,0,0,1,5.43,3.18c-4.6,1.06-9.33,1.32-14,2.11-2.76.29-5.79.94-8.35-.46-15.12-9.15-31-16.93-46.49-25.44C121.54,225.77,115,223.19,109.51,218.86Z"/><path class="cls-5" d="M379.84,220c7-2.09,14.06.9,21,1.61,7.59.29,15.24-.61,22.8.52,12.49,1.8,25.23,5.62,34.82,14.19,8.88,7.82,13.9,20.58,10.91,32.26-2,6.48-5.13,13-10.7,17.1-1.46-6.6-2.09-13.68-6.29-19.27a45.77,45.77,0,0,0-42.57-18.49c-23.86,2.82-46.77,10.61-69.17,19-4.65,1.65-9.06,4-13.88,5.14-2.88.75-5.71-.58-8.3-1.68-3.84-1.84-8-3.32-11.17-6.21,6.13-3.14,12.82-5,19.18-7.57,12.87-5.24,26-11.08,35.84-21.18C368.11,230.19,372.06,222.45,379.84,220ZM377,224c1.16,1.35,2.23,3.26,4.2,3.43,3-1.69,5.87-3.51,8.86-5.18-3.83-.26-7.63.71-10.32,3.58-.22-1.32-.44-2.63-.65-4C378.37,222.56,377.67,223.26,377,224Z"/><path class="cls-5" d="M220.62,224.38a38.28,38.28,0,0,1,7.55.54A4.81,4.81,0,0,1,220.62,224.38Z"/><path class="cls-5" d="M327.69,230.16c1.8-1.42,2.72-3.64,4.11-5.42-.11,2.62-.68,5.57-3.25,6.9-3.6,2.21-7.42-.61-10.67-2.11,1-.53,2-1,3-1.52A5.4,5.4,0,0,0,327.69,230.16Z"/><path class="cls-5" d="M241.22,234.31c16.45-3.69,34.32,6.38,40.16,22.07,3.09,8.73,3.18,18.78-.84,27.24a35.32,35.32,0,0,1-49.08,16.77c-13.71-7.07-21.72-23.85-18-38.92C216.31,248,227.66,236.77,241.22,234.31Zm-7.42,4.2c1.14,2.83,2.43,5.6,3.66,8.4-5.78,13.64-12.37,26.93-17.83,40.69,8,.06,16,.08,24,0-1-3.92-2.53-7.71-3.26-11.69a83.21,83.21,0,0,1,7.27-17,124.86,124.86,0,0,1,7.23,15.78c-3-.16-6-.39-9-.5.63,4.57,2.18,8.94,3.52,13.34,9.14.16,18.3.14,27.44,0-7-15.23-14.36-30.29-21.35-45.52a12,12,0,0,0-2.18-3.44C246.85,238.29,240.32,238.55,233.8,238.51Z"/><path class="cls-5" d="M141.85,258.56a79.77,79.77,0,0,1,16-9,46,46,0,0,1,11.26,6.56C160,257.09,151,258.44,141.85,258.56Z"/><path class="cls-5" d="M186.12,257.13c5-.69,10.14-.89,15.23-1.15-.39,3.94-1,7.86-1.6,11.78a75.48,75.48,0,0,1-9.85-.69c-13.05-2-26.13-3.64-39.15-5.79C162.37,258.71,174.35,258.62,186.12,257.13Z"/><path class="cls-5" d="M133.82,263.88c2.77-2.53,6.58-1.37,9.84-.82,6.18,1.16,12.52,1.35,18.63,2.91-6.8,6.11-15.15,10.24-21.94,16.41-4.82,4.61-11.12,7-16.92,10.06-3.46,1.59-6.74,3.8-10.53,4.51-3.36-.62-6.16-2.74-8.67-4.95C112.61,281.2,122.9,272,133.82,263.88Z"/><path class="cls-5" d="M175.09,270.07c6.09-3.64,13.31-.36,19.67.74-16.88,8.76-35.31,14.14-52.27,22.69,8.15.41,16.17-1.32,24.25-2,10.49-1.08,20.9-3.21,31.46-3.38-3.78,4.35-8.8,7.31-13.17,11-1.89,1.39-3.71,3.32-6.21,3.42-12.07,1.31-24.23,1.09-36.32,2.1-4.86.57-9.76.64-14.65.74-7.76,0-15.46,1.63-23.22.83,5.05-3.78,11-6,16.54-9C139,287.93,157.17,279.23,175.09,270.07Z"/><path class="cls-5" d="M304.37,269.38c1.24-1.81,3.46-.38,5.05,0,4.71,2,9.83,3.78,13.48,7.53,2,2.38,0,5.48-1.35,7.64-4,5.76-7.51,12.2-8.11,19.32a53.84,53.84,0,0,0,3.1,21.41c7.56,20.58,16.9,40.61,22,62a48.49,48.49,0,0,1,1.7,10.09c-5-2.24-7.62-7.37-9.76-12.11a384.33,384.33,0,0,0-24.6-50.41c-4.76-8.65-9.29-17.43-13.9-26.15-2-3.26,1-6.38,2.58-9.09,4.81-7,7.19-15.31,8.38-23.62A27.68,27.68,0,0,1,304.37,269.38Z"/><path class="cls-5" d="M189.73,298.79c4.67-3.52,8.9-7.65,14-10.54,1.67,2.84,3.24,5.74,4.66,8.71-7.67,3.9-15.52,7.42-23.28,11.12-3.89,1.75-7.72,3.73-11.88,4.76C178,307.38,184.25,303.48,189.73,298.79Z"/><path class="cls-5" d="M191.87,308a76.8,76.8,0,0,1,15-6.64c-6.22,16.24-15.2,31.25-22.49,47-.54,1.3-1,2.64-1.41,4a30.27,30.27,0,0,0,4.12-3.17c8.47-8.56,16.37-17.65,24.34-26.67,3.77-4.11,7.29-8.45,11.53-12.09,3.05,1.18,6,2.54,9,4a20.72,20.72,0,0,1-3,4.53c-23,24-45.33,48.69-69.08,72,1.1-5.7,3.64-11,5.62-16.39,7.81-20.84,15.87-41.59,23.48-62.5C189.52,310.42,190.23,308.71,191.87,308Z"/><path class="cls-5" d="M123.12,309.2c8.46-1.41,17.11-1.24,25.66-1.51-.14.68-.43,2-.57,2.7a189.7,189.7,0,0,1-24.46,9.54A57.55,57.55,0,0,1,123.12,309.2Z"/><path class="cls-17" d="M293.12,203.12c8.19-1.32,16.45-2.66,24.78-2.44A161.53,161.53,0,0,1,365,210.63c3.21,1.36,8.76,1.48,8.76,6.13-3,3.94-6.87,7.21-9.73,11.31-11.32,14.36-28.71,21.65-45.44,27.67-6.05,2.15-12.23,3.91-18.39,5.7-.38,4.92-.14,9.89-1,14.77a56.46,56.46,0,0,1-15,29.11,20.08,20.08,0,0,0-3.15,3.86c-.21,2.51,2,4.26,3.42,6.09,6.31,6.74,12.67,13.51,17.82,21.21,11.83,17.64,20.52,37.19,28.21,56.92-12.55-11.19-24.46-23.17-38.15-33-19.87-14.13-40.6-27.68-63.92-35.38a101.13,101.13,0,0,1,7.58-9.07c7.17.65,14.5,1.54,21.61-.09A48.35,48.35,0,0,0,288,295a47.8,47.8,0,0,0,6-38.19,49.15,49.15,0,0,0-30.74-33.33c-4.13-1.52-8.52-2-12.84-2.72,1.34-1.44,2.91-3.41,5.16-2.62,13.6,3,27.59,3.17,41.39,4.62,1.76,4,3.62,8.14,7,11,4.33,4,10.09,5.58,15.23,8.16-4.87.69-9.7-.32-14.53-.75,4.43,5.18,11.83,5.72,18.17,5,8.14-.77,15.59-5.26,20.88-11.37,2.25-2.42,4.21-5.61,7.67-6.35,4.48-1.09,9.38-1.85,12.87-5.15,2.52-2.21,3.59-5.52,4.06-8.73-3.33,2.6-6,6.35-10.3,7.47-9.12,2.66-18.51-.66-27.34-3-14.92-4.63-30.38-9.24-46.19-7.63,6.08,3.23,13.89,1.35,19.75,5.29-15.7,3-31.89,1.72-47.54-.95C267.62,208.68,280.45,205.35,293.12,203.12Z"/><path class="cls-17" d="M333.73,276.91c15.25-4.81,29.9-11.39,45.33-15.65,1.52,2.09,3.16,4.23,3.67,6.83,1.27,5-2.77,10.16.18,14.84,5.12,9.59,9.32,19.67,15.1,28.9,1.26,2.45,3.58,5.84,1.15,8.32a27.25,27.25,0,0,1-9.26,5.22,9.81,9.81,0,0,1-6.24-6.16c-1.42-3.57-5.85-3-8.93-2.9.38,2.25,3,2.27,4.68,3,.27,1.4.52,2.82.92,4.22,2.34,1.46,5.19,1.8,7.58,3.19.83,3.79,1,7.71,1.67,11.56-5.89.62-11.82,0-17.7.63a56.56,56.56,0,0,1-7.9.52c-1.56-.56-2-2.45-3-3.62-1.34,3.08-2.71,6.15-4,9.24,3.05-2,6.28-3.86,10-4.18a76,76,0,0,1,21.45.57,21.66,21.66,0,0,1,.7,6c-8.1.05-18.38-1.05-23.84,6.31,5.17-.14,10.51-1.52,15.51.46-.52,3.56-1.34,7.08-1.73,10.67-.21,4.63-4.84,7.08-8.7,8.39-6.9,2.24-14-.54-20.15-3.67-4.76-2.58-10-4.41-14.31-7.71-4.12-3.26-4.72-8.83-6.61-13.39-5.17-12.92-9.87-26.54-9.11-40.67,0-7.67,3-14.89,5.79-21.89C327.64,282.36,329.55,278.08,333.73,276.91Zm24-5.13c-4,1.63-9.36,3-10.22,8,4.93-2.4,9.65-6.25,15.34-6.3,4.6,1.83,7.72,6.23,10.31,10.3-3.75-.67-7.38-2.45-11.24-2-4.78,1.1-7.68,5.51-9.92,9.53,2.55,1.37,4.6,4.28,7.8,3.91,3.21,0,6.43-.16,9.64-.06a36.93,36.93,0,0,1-3.64,6.93c6-4,8.95-10.84,11.22-17.46.23-2.33.36-4.69,1.41-6.84-4.83-2.22-8.92-5.68-13.64-8.06C362.3,269.59,360.06,271.09,357.72,271.78Zm12.39,37.39c0,1.31-.06,2.62-.05,3.94a13.22,13.22,0,0,1,10.1-4A12.51,12.51,0,0,0,370.11,309.17Zm-44.73,1.93c2.28,3.5,6.09,5.45,8.88,8.45,2.34,4.47,2.38,9.74,4,14.49-.54-3.85-1.35-8.77,2.36-11.36,6.63-3.91,15.08-1.22,21.82-5-7.24,1.58-14.75,2.53-22.06.74C334.71,317.57,330,314.24,325.38,311.1Z"/></svg>