<svg id="Layer_1" data-name="Layer 1" xmlns="http://www.w3.org/2000/svg" xmlns:xlink="http://www.w3.org/1999/xlink" viewBox="0 0 1137 476"><defs><style>.cls-1,.cls-6{fill:none;}.cls-2{clip-path:url(#clip-path);}.cls-3{fill:#fc0;}.cls-4,.cls-7{fill:#001638;}.cls-10,.cls-12,.cls-5{fill:#fff;}.cls-6{stroke:#fff;stroke-width:3px;}.cls-10,.cls-12,.cls-13,.cls-7{isolation:isolate;}.cls-7{font-size:44.92px;}.cls-10,.cls-12,.cls-7{font-family:RobotoSlab-Bold, Roboto Slab;font-weight:700;}.cls-8{letter-spacing:-0.11em;}.cls-9{letter-spacing:-0.07em;}.cls-10{font-size:48.83px;}.cls-11{letter-spacing:-0.09em;}.cls-12{font-size:94.52px;}.cls-13{font-size:36.78px;fill:#e6e7e8;font-family:Roboto-Black, Roboto;font-weight:800;letter-spacing:0.16em;}</style><clipPath id="clip-path"><path class="cls-1" d="M1112.05,474.05H25a23,23,0,0,1-23-23V25A23,23,0,0,1,25,2h1087.1a23,23,0,0,1,23,23v426.1A23,23,0,0,1,1112.05,474.05Z"/></clipPath></defs><g class="cls-2"><rect class="cls-3" x="-29.35" y="-22.35" width="1214" height="529.4"/></g><g class="cls-2"><path class="cls-4" d="M1133.75,238H264.45a38,38,0,0,0-38,38v243.2a38,38,0,0,0,38,38h869.4a38,38,0,0,0,38-38V276A38.07,38.07,0,0,0,1133.75,238Z"/></g><g class="cls-2"><path class="cls-5" d="M1090.65,451H88.75a25.33,25.33,0,0,1-25.3-25.3V50.15a25.33,25.33,0,0,1,25.3-25.3h1001.9a25.33,25.33,0,0,1,25.3,25.3v375.5A25.27,25.27,0,0,1,1090.65,451ZM88.85,34a16.3,16.3,0,0,0-16.3,16.3v375.5a16.3,16.3,0,0,0,16.3,16.3h1001.9a16.3,16.3,0,0,0,16.3-16.3V50.25a16.3,16.3,0,0,0-16.3-16.3Z"/></g><g class="cls-2"><path class="cls-5" d="M240.35,521.85H240c-11-.4-21.9-1.3-32.4-2.7l2.4-18.9c9.9,1.3,20.2,2.1,30.6,2.5a265.55,265.55,0,0,0,81.8-12.9l5.9,18.1A281.08,281.08,0,0,1,240.35,521.85ZM153,507.55c-40.4-12.4-75.9-32.4-105.6-59.6l12.8-14c27.6,25.2,60.7,43.9,98.3,55.4ZM10.15,405.75c-23.1-32.5-39.3-71.1-47-111.7l18.7-3.5c7.2,37.9,22.3,74,43.8,104.3Zm-33.3-167.5h-19V238a297.15,297.15,0,0,1,24.4-118.3l17.4,7.6A279.37,279.37,0,0,0-23.15,238Zm48.4-156.6-15.5-11a261.94,261.94,0,0,1,90.8-80.4l9,16.7A245.08,245.08,0,0,0,25.25,81.65ZM158-13.25l-5.6-18.2a342.31,342.31,0,0,1,87.7-14.5h.4a291.83,291.83,0,0,1,32.4,1.8l-2.1,18.9a272.84,272.84,0,0,0-30-1.7A320.82,320.82,0,0,0,158-13.25Z"/></g><g class="cls-2"><rect class="cls-5" x="-55.85" y="-54.65" width="296.3" height="312.5"/></g><g class="cls-2"><rect class="cls-4" x="-55.85" y="239.25" width="296.3" height="312.5"/></g><path id="SVGID" class="cls-6" d="M1112.05,474.05H25a23,23,0,0,1-23-23V25A23,23,0,0,1,25,2h1087.1a23,23,0,0,1,23,23v426.1A23,23,0,0,1,1112.05,474.05Z"/><circle class="cls-5" cx="240.35" cy="237.95" r="236.1"/><circle class="cls-3" cx="240.35" cy="237.95" r="192.4"/><text class="cls-7" transform="translate(579.7 138.14)">JEE<tspan class="cls-8" x="83.52" y="0">V</tspan><tspan x="110.89" y="0">AN CH</tspan><tspan class="cls-9" x="253.08" y="0">A</tspan><tspan x="282.05" y="0">THA </tspan></text><text class="cls-10" transform="translate(579.19 192.33)">UC SAN<tspan class="cls-11" x="182.88" y="0">T</tspan><tspan x="211.42" y="0">A CRUZ</tspan></text><text class="cls-12" transform="translate(583.99 350.62)">MCLA </text><text class="cls-13" transform="translate(581.53 391.84)">Class of 2024</text><rect class="cls-5" x="249.52" y="151.26" width="90.18" height="136.75"/><path class="cls-4" d="M191.87,98.18c7.38-1.57,15-.42,22.21,1.56a94.15,94.15,0,0,1,19.78,8.2c2.11,1.11,4.07,2.49,6.15,3.64a16.49,16.49,0,0,1,4.69-5.11c4.3-2.76,9.7-2.57,14.57-1.89,10.38,1.63,19.68,7.14,27.86,13.5a159.31,159.31,0,0,1,20.08,19.22c1.77,1.93,3.36,4.1,5.66,5.45a14.8,14.8,0,0,0,3.35,1.56,42.5,42.5,0,0,0,2-7.14,89.66,89.66,0,0,0,1.78-18.7,2.66,2.66,0,0,1,1.23-2.47,2.9,2.9,0,0,1,3.35,1,47.24,47.24,0,0,1,2.62,3.94c5.06,7.91,10.88,15.51,18.45,21.17,1.73,1.35,3.57,2.55,5.42,3.73,1,.61.68,2,.14,2.77a8.1,8.1,0,0,1-5.62,3c-.68.13-1.64.12-1.89.93a3.76,3.76,0,0,0,.91,3,40.34,40.34,0,0,0,10.57,9.69,93.53,93.53,0,0,0,10.71,5.66c1.32.68.66,2.51-.12,3.38-2.38,2.72-6.24,3.34-9.67,3.51a1.7,1.7,0,0,0-1.77,1.88c.23,1.69,1.59,2.86,2.69,4,5.77,5.8,13.22,9.57,20.74,12.59.91.39,2.15.62,2.5,1.7.47,1.59-.6,3.11-1.67,4.17-2.62,2.48-6.21,3.58-9.69,4.15a3.06,3.06,0,0,0-2.52,1.59c-.37,1.11.32,2.21,1,3.05,6.62,7.9,15.49,13.62,24.9,17.66,1.24.46,1.48,2,1.15,3.13a9.47,9.47,0,0,1-4.23,5.21c-3.6,2.32-7.93,3.16-12.14,3.45a3.75,3.75,0,0,0-3.43,2.22c-.64,2,.14,4.15,1,6a106.25,106.25,0,0,0,6.17,11.15,9.37,9.37,0,0,1,1.79,5.63c-.14,2.9-1.22,5.64-2,8.39-6.93,21.17-18.31,40.71-32.15,58.08A214.51,214.51,0,0,1,242.6,403.3a214.1,214.1,0,0,1-83.13-47.24,210.72,210.72,0,0,1-40.64-50.63,166,166,0,0,1-15.41-35.73c-.84-2.75-1.29-5.91.18-8.54,2.66-4.61,5.67-9.07,7.61-14.06.59-1.73,1.05-3.93-.24-5.46s-3.4-1.23-5.15-1.46c-4.33-.54-8.84-1.85-12-5-1.35-1.4-2.6-3.4-2-5.42.27-.93,1.27-1.21,2-1.57,8.94-3.92,17.31-9.45,23.69-16.9a4.22,4.22,0,0,0,1.34-3.13c-.23-1.14-1.46-1.66-2.5-1.83-3.51-.57-7.13-1.67-9.77-4.15-1.08-1.07-2.15-2.58-1.7-4.17.37-1.17,1.73-1.36,2.71-1.8,7.81-3.15,15.55-7.13,21.37-13.36.89-1,1.9-2.09,1.85-3.5a1.66,1.66,0,0,0-1.72-1.56c-2.89-.13-5.92-.58-8.35-2.26a4.67,4.67,0,0,1-2.24-3.37,1.38,1.38,0,0,1,1-1.38,71.76,71.76,0,0,0,13.39-7.56,39.88,39.88,0,0,0,7.56-7.52,3.92,3.92,0,0,0,1-3.17c-.28-.78-1.2-.77-1.88-.91a8.53,8.53,0,0,1-5.34-2.64c-.8-.88-1.26-2.64,0-3.29a63.14,63.14,0,0,0,12.52-10.11,101.9,101.9,0,0,0,12-15.9,13,13,0,0,1,2.35-3.2A2.67,2.67,0,0,1,164,116a2.73,2.73,0,0,1,1.21,2.46,102.7,102.7,0,0,0,2,19.48,44.22,44.22,0,0,0,4.49,12.57,1.73,1.73,0,0,1-.38,2.25A6.59,6.59,0,0,1,166,154c-.69,0-1.55-.26-2.05.36-.59.8-.28,1.85-.19,2.75a44.17,44.17,0,0,0,7.5,18c.22.24.47.9.87.55a34.47,34.47,0,0,0,10.45-10.78,1.11,1.11,0,0,0-.59-1.77c-1.84-.25-3.85-.65-5.11-2.13-.55-.61-.89-1.71-.18-2.34,7.21-4.15,11.74-11.45,16.06-18.31a1.91,1.91,0,0,1,2.56-.78c.91.65,1,1.86,1.17,2.86a27.1,27.1,0,0,0,7.3,14.55,1.55,1.55,0,0,1,0,2.29c-1.11,1.25-2.87,1.39-4.43,1.56-.87.1-1.09,1.15-.92,1.87a13.1,13.1,0,0,0,3.1,6.41c7.14-4.92,14.71-9.18,22.29-13.38,2-1.14,4.21-2,5.67-3.8a5.44,5.44,0,0,0,.68-4.65,26.09,26.09,0,0,0-6.88-12.45,23.05,23.05,0,0,0-13.82-7.18c-3.42-.37-6.74.79-10.12,1-5,.47-10.23,0-14.74-2.29a14.47,14.47,0,0,1-7.22-8.15,14,14,0,0,1,1.89-12.92C182.36,101.35,187.13,99.2,191.87,98.18Zm.42,10.54a5.66,5.66,0,0,0-3.37,4.18,4,4,0,0,0,1.82,3.76,10.91,10.91,0,0,0,6.7,1.56c3.49,0,6.63-2.08,10.15-1.87a34.48,34.48,0,0,1,15.26,4.58,42.44,42.44,0,0,1,20.21,27,11.9,11.9,0,0,1-.73,8.54c-1.78,3.41-5.17,5.55-8.51,7.24-9,4.82-17.95,9.83-26.55,15.38-9.51,6.15-18.69,13-26.56,21.17a127.8,127.8,0,0,0-19.64,25.82,101.06,101.06,0,0,0-11.76,31.83A91,91,0,0,0,151.18,299a88.64,88.64,0,0,0,16.48,31.95,106.92,106.92,0,0,1,4.9-50.12A88.71,88.71,0,0,1,190.86,250a80.45,80.45,0,0,1,26-18.72,95.85,95.85,0,0,1,40.41-8.18c10.16.08,20.28,1.27,30.44,1.1,7.05-.15,14.16-.61,21-2.42,9.45-2.49,18.56-7,25.6-13.82,2.73-2.75,5.62-6.13,5.31-10.28a14.88,14.88,0,0,0-4.05-8.67,13.06,13.06,0,0,1-3.47,1.23,11.47,11.47,0,0,1-3.69-4.44,38.67,38.67,0,0,1,4.49-2.62,16.66,16.66,0,0,0-4.66-2.27,12.33,12.33,0,0,1,1.47-3.32,7.24,7.24,0,0,0-6.41,4.34,8.49,8.49,0,0,0,.09,6.51c-2.14-1.22-4.38-2.64-5.48-4.94a4.61,4.61,0,0,1,1.21-5.81c2.9-2.2,5.27-5.15,8.58-6.77a32.59,32.59,0,0,1,3.48-1.22,16.13,16.13,0,0,0-3.82-6.46c-3.66-3.63-8.43-5.83-13.11-7.82-3.24-1.36-6.68-2.6-9.25-5.1-2.22-2.17-4.06-4.69-6.09-7-7.1-8.27-14.82-16.18-24-22.19a44.41,44.41,0,0,0-16.55-6.95,14,14,0,0,0-7.17.29,4,4,0,0,0-2.56,2.33,2.9,2.9,0,0,0,.91,3.16,9.89,9.89,0,0,0,5.76,1.86c2.5.2,5-.54,7.5.15a25.51,25.51,0,0,1,6.49,3.16c8.17,5.24,13.79,13.87,16.31,23.16-2.47-.07-4.94-.19-7.42-.2a13.91,13.91,0,0,1-6.22-1.37,50.52,50.52,0,0,1-6.87-4.65c-10-7.56-19.73-15.42-30.42-21.94-9.73-5.92-20.29-11-31.69-12.58A17.92,17.92,0,0,0,192.29,108.72Zm92.87,135c-3.6.33-7.24.36-10.81,1a30.49,30.49,0,0,0-10.94,4.1,20.89,20.89,0,0,0-9,11.61c-1.21,4.15-1.29,8.82.67,12.76s5.7,6.51,9.73,7.83c6.34,2.1,13.18,1.69,19.69.67,9.43-1.6,18.8-5.4,25.67-12.23a27.13,27.13,0,0,0,3.56-4.29c.73-1.2,1-3-.14-4a3.08,3.08,0,0,0-3.13-.15,25.89,25.89,0,0,1-10.63,1.68,13.87,13.87,0,0,1-6.41-1.73,2.93,2.93,0,0,1-1.62-2.71c.17-1.22,1.25-2,2.05-2.79,4.33-4.26,8.7-8.82,10.93-14.59A131.51,131.51,0,0,1,285.16,243.73ZM219.51,289a64.75,64.75,0,0,0,3.43,38.31c3.72,8.92,9.8,17,18,22.26a61.32,61.32,0,0,0,14.1,6.24,45.89,45.89,0,0,0,26.12.12c11.34-3.23,21.56-9.57,30.43-17.21a124.35,124.35,0,0,0,13.74-13.61A60.69,60.69,0,0,0,314,314.73a37.22,37.22,0,0,0-14.1-5.71c-5.62-1.12-11.38-1.1-17.08-1.31a149.84,149.84,0,0,1-20.61-2,52.33,52.33,0,0,1-15.05-4.92,21.92,21.92,0,0,0-2.48-1.33c1.53,9.45,6.8,17.94,13.52,24.6.62.65,1.33,1.67.76,2.57a2.19,2.19,0,0,1-2.46.42A34.25,34.25,0,0,1,242,317.68c-6.52-7.06-10.08-16.38-11.66-25.75a74,74,0,0,1,.08-24.57C224.77,273.29,221.29,281,219.51,289Z"/><path class="cls-4" d="M271.88,165.44c5.61-3.95,13.74-4.53,19.49-.54,4.82,3.29,8,8.69,13.42,11.13.86.48,2.27.5,2.49,1.67a3.89,3.89,0,0,1-3.78,4.17,12.85,12.85,0,0,0-5.69,1,38.39,38.39,0,0,1-6.13,2.4c-2,.28-3.9-.93-5.42-2.15-1-.95-2.1-2.27-2-3.65a37.32,37.32,0,0,1,6.49-3.37,40.15,40.15,0,0,0-6.94-3.15,7.48,7.48,0,0,1,4.6-3.44,9.9,9.9,0,0,0-5.94-1.18,10,10,0,0,0-8.11,6.51c-.37.82-.31,1.8-.81,2.57a14.93,14.93,0,0,0-6.74-4.62c-.72-.25-1.78-.39-1.88-1.33-.13-1.45.94-2.65,2-3.51C268.35,166.72,270.37,166.59,271.88,165.44Z"/><path class="cls-4" d="M255.56,186.48a22.89,22.89,0,0,1,10.17.82c1.34.46,3,1.52,2.7,3.17s-3.09.81-3.29,2.61a8.71,8.71,0,0,0,1.58,2.69A24.75,24.75,0,0,0,278.14,204c6.1,2.25,12.64,2.88,19.1,3.09,4.8.17,9.61-.05,14.41-.3,1-.35,2.15.78,1.27,1.65a6.16,6.16,0,0,1-2.46,1.46,60.45,60.45,0,0,1-23,4.47,37.14,37.14,0,0,1-18.64-5,34.35,34.35,0,0,1-12.67-13.81,4.72,4.72,0,0,0-2.08-2.5c-1.67-.68-3.52-.27-5.26-.44a1.85,1.85,0,0,1-1.72-1.84,3.4,3.4,0,0,1,2-2.39A18.2,18.2,0,0,1,255.56,186.48Z"/><path class="cls-4" d="M179,227.68a7.65,7.65,0,0,1,7,1.37,5.73,5.73,0,0,1,1.57,5.33c-.5,2.89-2.21,5.39-4,7.62a160.45,160.45,0,0,0-13.05,19c-.53.87-1.3,2.07-2.5,1.72s-1.61-1.77-2-2.85c-1.24-3.93-.9-8.13-.3-12.14a35.74,35.74,0,0,1,5.36-14A13.31,13.31,0,0,1,179,227.68Z"/><path class="cls-3" d="M192.29,108.72a17.92,17.92,0,0,1,10.77-1.2c11.4,1.56,22,6.66,31.69,12.58,10.69,6.52,20.47,14.38,30.42,21.94a50.52,50.52,0,0,0,6.87,4.65,13.91,13.91,0,0,0,6.22,1.37c2.48,0,4.95.13,7.42.2-2.52-9.29-8.14-17.92-16.31-23.16a25.51,25.51,0,0,0-6.49-3.16c-2.46-.69-5,0-7.5-.15a9.89,9.89,0,0,1-5.76-1.86,2.9,2.9,0,0,1-.91-3.16,4,4,0,0,1,2.56-2.33,14,14,0,0,1,7.17-.29A44.41,44.41,0,0,1,275,121.1c9.15,6,16.87,13.92,24,22.19,2,2.33,3.87,4.85,6.09,7,2.57,2.5,6,3.74,9.25,5.1,4.68,2,9.45,4.19,13.11,7.82a16.13,16.13,0,0,1,3.82,6.46,32.59,32.59,0,0,0-3.48,1.22c-3.31,1.62-5.68,4.57-8.58,6.77a4.61,4.61,0,0,0-1.21,5.81c1.1,2.3,3.34,3.72,5.48,4.94a14.12,14.12,0,0,0,8.71,1.8,13.06,13.06,0,0,0,3.47-1.23,14.88,14.88,0,0,1,4.05,8.67c.31,4.15-2.58,7.53-5.31,10.28-7,6.87-16.15,11.33-25.6,13.82-6.84,1.81-13.95,2.27-21,2.42-10.16.17-20.28-1-30.44-1.1a95.85,95.85,0,0,0-40.41,8.18,80.45,80.45,0,0,0-26,18.72,88.71,88.71,0,0,0-18.3,30.79,106.92,106.92,0,0,0-4.9,50.12A88.64,88.64,0,0,1,151.18,299a91,91,0,0,1-1.87-41.06,101.06,101.06,0,0,1,11.76-31.83,127.8,127.8,0,0,1,19.64-25.82c7.87-8.2,17-15,26.56-21.17,8.6-5.55,17.53-10.56,26.55-15.38,3.34-1.69,6.73-3.83,8.51-7.24a11.9,11.9,0,0,0,.73-8.54,42.44,42.44,0,0,0-20.21-27,34.48,34.48,0,0,0-15.26-4.58c-3.52-.21-6.66,1.85-10.15,1.87a10.91,10.91,0,0,1-6.7-1.56,4,4,0,0,1-1.82-3.76A5.66,5.66,0,0,1,192.29,108.72Zm79.59,56.72c-1.51,1.15-3.53,1.28-5,2.53-1,.86-2.11,2.06-2,3.51.1.94,1.16,1.08,1.88,1.33a14.93,14.93,0,0,1,6.74,4.62l-.07.15c2,2.85,4.42,5.6,7.66,7.08a15.07,15.07,0,0,0,10.54.63,38.39,38.39,0,0,0,6.13-2.4,12.85,12.85,0,0,1,5.69-1,3.89,3.89,0,0,0,3.78-4.17c-.22-1.17-1.63-1.19-2.49-1.67-5.44-2.44-8.6-7.84-13.42-11.13C285.62,160.91,277.49,161.49,271.88,165.44Zm-16.32,21a18.2,18.2,0,0,0-6.53,1.94,3.4,3.4,0,0,0-2,2.39,1.85,1.85,0,0,0,1.72,1.84c1.74.17,3.59-.24,5.26.44a4.72,4.72,0,0,1,2.08,2.5A34.35,34.35,0,0,0,268.8,209.4a37.14,37.14,0,0,0,18.64,5,60.45,60.45,0,0,0,23-4.47,6.16,6.16,0,0,0,2.46-1.46c.88-.87-.27-2-1.27-1.65-4.8.25-9.61.47-14.41.3-6.46-.21-13-.84-19.1-3.09a24.75,24.75,0,0,1-11.42-8.26,8.71,8.71,0,0,1-1.58-2.69c.2-1.8,3-.88,3.29-2.61s-1.36-2.71-2.7-3.17A22.89,22.89,0,0,0,255.56,186.48ZM179,227.68a13.31,13.31,0,0,0-7.94,6.1,35.74,35.74,0,0,0-5.36,14c-.6,4-.94,8.21.3,12.14.4,1.08.87,2.36,2,2.85s2-.85,2.5-1.72a160.45,160.45,0,0,1,13.05-19c1.82-2.23,3.53-4.73,4-7.62a5.73,5.73,0,0,0-1.57-5.33A7.65,7.65,0,0,0,179,227.68Z"/><path class="cls-3" d="M219.51,289c1.78-7.94,5.26-15.67,10.93-21.6a74,74,0,0,0-.08,24.57c1.58,9.37,5.14,18.69,11.66,25.75A34.25,34.25,0,0,0,256.53,327a2.19,2.19,0,0,0,2.46-.42c.57-.9-.14-1.92-.76-2.57-6.72-6.66-12-15.15-13.52-24.6a21.92,21.92,0,0,1,2.48,1.33,52.33,52.33,0,0,0,15.05,4.92,149.84,149.84,0,0,0,20.61,2c5.7.21,11.46.19,17.08,1.31a37.22,37.22,0,0,1,14.1,5.71,60.69,60.69,0,0,1,11.32,10.34,124.35,124.35,0,0,1-13.74,13.61c-8.87,7.64-19.09,14-30.43,17.21a45.89,45.89,0,0,1-26.12-.12,61.32,61.32,0,0,1-14.1-6.24c-8.22-5.23-14.3-13.34-18-22.26A64.75,64.75,0,0,1,219.51,289Z"/></svg>