<svg id="Layer_1" data-name="Layer 1" xmlns="http://www.w3.org/2000/svg" xmlns:xlink="http://www.w3.org/1999/xlink" viewBox="0 0 1136.11 475.13"><defs><style>.cls-1,.cls-10{fill:none;}.cls-2{fill:#005ea8;}.cls-3{clip-path:url(#clip-path);}.cls-4{fill:#014c25;}.cls-5{clip-path:url(#clip-path-3);}.cls-16,.cls-6{fill:#97002e;}.cls-7{fill:#010101;}.cls-8{fill:#fcf7f9;}.cls-15,.cls-9{fill:#fff;}.cls-10{stroke:#fff;stroke-width:3px;}.cls-11{clip-path:url(#clip-path-9);}.cls-12,.cls-13{fill:#b5b5b5;}.cls-13,.cls-15,.cls-16,.cls-17{isolation:isolate;}.cls-13{font-size:44.92px;}.cls-13,.cls-15,.cls-16{font-family:RobotoSlab-Bold, Roboto Slab;font-weight:700;}.cls-14{letter-spacing:-0.03em;}.cls-15{font-size:48.83px;}.cls-16{font-size:94.52px;}.cls-17{font-size:36.78px;font-family:Roboto-Black, Roboto;font-weight:800;letter-spacing:0.19em;}.cls-17,.cls-18{fill:#fefefe;}</style><clipPath id="clip-path"><path class="cls-1" d="M1111.6-74.2H24.52a23,23,0,0,1-23-23V-523.31a23,23,0,0,1,23-23H1111.6a23,23,0,0,1,23,23v426.1A23,23,0,0,1,1111.6-74.2Z"/></clipPath><clipPath id="clip-path-3"><path class="cls-1" d="M1111.6,473.63H24.52a23,23,0,0,1-23-23V24.52a23,23,0,0,1,23-23H1111.6a23,23,0,0,1,23,23v426.1A23,23,0,0,1,1111.6,473.63Z"/></clipPath><clipPath id="clip-path-9"><circle class="cls-2" cx="239.93" cy="237.57" r="192.39"/></clipPath></defs><g class="cls-3"><path class="cls-4" d="M1133.35-310.26H264a38,38,0,0,0-38,38V-29.08A38,38,0,0,0,264,9h869.39a38,38,0,0,0,38-38V-272.24A38,38,0,0,0,1133.35-310.26Z"/></g><g class="cls-3"><rect class="cls-4" x="-56.34" y="-308.96" width="296.26" height="312.55"/></g><g class="cls-5"><rect class="cls-6" x="-29.78" y="-22.7" width="1213.97" height="529.38"/></g><g class="cls-5"><path class="cls-7" d="M1133.35,237.57H264a38,38,0,0,0-38,38V518.75a38,38,0,0,0,38,38h869.39a38,38,0,0,0,38-38V275.59A38,38,0,0,0,1133.35,237.57Z"/></g><g class="cls-5"><path class="cls-8" d="M1090.25,450.59H88.36A25.29,25.29,0,0,1,63.1,425.33V49.8A25.29,25.29,0,0,1,88.36,24.54H1090.25a25.29,25.29,0,0,1,25.26,25.26V425.33A25.29,25.29,0,0,1,1090.25,450.59ZM88.36,33.54A16.28,16.28,0,0,0,72.1,49.8V425.33a16.28,16.28,0,0,0,16.26,16.26H1090.25a16.28,16.28,0,0,0,16.26-16.26V49.8a16.28,16.28,0,0,0-16.26-16.26Z"/></g><g class="cls-5"><path class="cls-9" d="M239.93,521.49h-.38c-11-.44-21.89-1.34-32.41-2.68L209.55,500c9.92,1.27,20.2,2.12,30.57,2.54a264.78,264.78,0,0,0,81.81-12.93l5.88,18.07A283.8,283.8,0,0,1,239.93,521.49Zm-87.42-14.35c-40.36-12.39-75.88-32.43-105.57-59.58l12.82-14c27.6,25.23,60.68,43.88,98.32,55.44ZM9.71,405.41c-23.08-32.5-39.34-71.14-47-111.74l18.67-3.53c7.17,37.93,22.33,74,43.84,104.27ZM-23.55,237.88h-19v-.33A298.42,298.42,0,0,1-18.2,119.23l17.42,7.59A279.37,279.37,0,0,0-23.55,237.55ZM24.83,81.23l-15.51-11a263.47,263.47,0,0,1,90.8-80.45l9,16.71A245,245,0,0,0,24.83,81.23Zm132.64-94.9-5.62-18.15a343,343,0,0,1,87.7-14.54h.38a288.33,288.33,0,0,1,32.36,1.82l-2.14,18.88a268.13,268.13,0,0,0-30-1.7A324.29,324.29,0,0,0,157.47-13.67Z"/></g><g class="cls-5"><rect class="cls-9" x="-56.34" y="-55.04" width="296.26" height="312.55"/></g><g class="cls-5"><rect class="cls-7" x="-56.34" y="238.87" width="296.26" height="312.55"/></g><path id="SVGID" class="cls-10" d="M1111.6,473.63H24.52a23,23,0,0,1-23-23V24.52a23,23,0,0,1,23-23H1111.6a23,23,0,0,1,23,23v426.1A23,23,0,0,1,1111.6,473.63Z"/><circle class="cls-9" cx="239.93" cy="237.57" r="236.07"/><circle class="cls-2" cx="239.93" cy="237.57" r="192.39"/><g class="cls-11"><rect class="cls-12" x="-52.54" y="-51.31" width="536.09" height="514.96"/></g><text class="cls-13" transform="translate(579.25 137.75)">XANDER <tspan class="cls-14" x="200.02" y="0">O</tspan><tspan x="230.46" y="0">AKES</tspan></text><text class="cls-15" transform="translate(578.75 191.95)">CHAPMAN</text><text class="cls-16" transform="translate(583.54 350.23)">MCLA D1</text><text class="cls-17" transform="translate(581.08 391.45)">Class of 2026</text><path class="cls-18" d="M286.68,222.47c3.48,1.28,7,2.38,10.42,3.92,3.31,1.71,4,6,7.13,7.92a39.29,39.29,0,0,0,3.66,2.14,15.36,15.36,0,0,1-5.13,3.22,22.57,22.57,0,0,1-5-.33c-.46,3.15,1.18,6,3.28,8.24,2.46,2.6,5.25,4.86,7.56,7.58a8.73,8.73,0,0,1,1.82,8.76c-.28.8-1.11,1.07-1.85,1.28-4.17,1.44-8.55-.09-12.67-1A42.71,42.71,0,0,0,268,267.62c-8,3.61-14.82,9.32-21.06,15.4,6.08-11.07,17-19.68,29.49-22,5.83-1.41,11.86-.9,17.78-.67a49.73,49.73,0,0,0-14.33-5.8c-12.05-2.85-24.66-1.85-36.65.73-2.21.44-4.34,1.22-6.58,1.44a103.19,103.19,0,0,1,23.69-6.3,65.81,65.81,0,0,1,24.76,2.42c5.76,1.23,11,4.05,16.71,5.5,1,.33,2.87-.12,2.28-1.55-1.82-4.2-4.94-7.68-6.84-11.84a17.24,17.24,0,0,1-1.13-6.16,61.44,61.44,0,0,1-7.07-2.67,5.51,5.51,0,0,1-2.43-2.57,11.11,11.11,0,0,1-.16-6.63A12.55,12.55,0,0,0,286.68,222.47Z"/><path class="cls-18" d="M343.39,253.87c3.75-1.24,7.67-2.94,11.69-2.06,2.1.83,2.73,3.39,2.78,5.44s.1,4.54-1.13,6.42c-1.22-3-3.07-6.18-6.29-7.27-3-1-5.93,1-8.89.09A2.39,2.39,0,0,1,343.39,253.87Z"/><path class="cls-7" d="M238.59,110h11.76c7,.63,14,.89,20.9,2.06a163.89,163.89,0,0,1,79.64,34.73,135.8,135.8,0,0,1,38.79,50.93,10.4,10.4,0,0,1,.94,6.66,9.06,9.06,0,0,1-8.81,7.31H326.4a9.26,9.26,0,0,1-9.18-9.23c-.08-3.38,2-6.35,4.69-8.2a28.14,28.14,0,0,0-3.66-4c-16.52-16.08-38.89-25.52-61.69-27.83a113.67,113.67,0,0,0-36.87,2.15c-22.1,4.92-42.92,17-56.89,35-10,13-16.26,29.34-15.79,45.88a23.29,23.29,0,0,1,1.43-2.13,220.72,220.72,0,0,1,20.23-21.69c8-7.16,16.23-14.13,25.41-19.74-.06,5.06-.14,10.11.16,15.17A124.91,124.91,0,0,0,198,238.54a12.85,12.85,0,0,0,2.32,4c5,6.15,11.13,11.19,17.17,16.25-17,9.76-32.87,21.9-45.8,36.72-1.62,1.79-3,3.82-4.75,5.47-4.93-5.49-9.75-11.18-13.31-17.68a75.27,75.27,0,0,1-3.4-70c7-15.23,18.73-28,32.69-37.16a109.65,109.65,0,0,1,42.15-16.4c21.81-3.57,44.72-1.26,65.07,7.56a100.37,100.37,0,0,1,33.59,23.34c1.14,1.36,2.44,3.16,1.74,5-.28,1.82-2.5,2.1-3.43,3.49-2.62,3.11-.37,8.67,3.79,8.81,18.11.07,36.22,0,54.33,0,1.8,0,3.85,0,5.21-1.38a5.76,5.76,0,0,0,1.32-6.43,130.14,130.14,0,0,0-35.81-48.51c-28.36-24.35-65.71-37.38-102.93-37.81a168.16,168.16,0,0,0-77.27,16.71c-26.95,13.09-50.43,34.28-64.13,61.15a125.83,125.83,0,0,0-10.3,28.4c-3.42,8.62-10.84,15.37-19.4,18.76-1.8.68-3.58,2-4,4-.27,1.72-.15,3.75,1.15,5.06A9.61,9.61,0,0,0,77.33,250a36.6,36.6,0,0,1,17.72,16.14c1.23,2.17,1.41,4.71,2,7.08a122,122,0,0,0,20.22,42.68c5.61,7.89,12.43,14.82,19.53,21.35,20.83,18.27,46.74,30.47,73.89,35.74a173.14,173.14,0,0,0,81.68-3.42,160.6,160.6,0,0,0,52-26c18.83-14.28,34.23-33.36,43-55.39a5.64,5.64,0,0,0-1-5.88,7.51,7.51,0,0,0-5.62-1.87c-6.85.06-13.7,0-20.55,0,.09-1.19.17-2.38.26-3.57,7.46.05,14.91-.06,22.37,0a9.31,9.31,0,0,1,8.64,8v2.23a41.23,41.23,0,0,1-3,7.93,134.47,134.47,0,0,1-34.56,45.51,160.43,160.43,0,0,1-58,31.71,179.8,179.8,0,0,1-42.29,7.52H237a174.55,174.55,0,0,1-62-14.17,153,153,0,0,1-50.25-35.15,127.37,127.37,0,0,1-32.18-60.76C90.14,263.43,85,258.43,79.26,255c-2.55-1.61-5.81-2.13-7.83-4.52A12.71,12.71,0,0,1,69,245.72V242.6c.78-1.76,1.37-3.71,2.87-5,2-1.9,4.74-2.38,7-3.74C85.25,230.5,90.78,224.93,93,218c6.47-27.89,23.13-52.92,45.23-70.92,24.77-20.57,56-32.66,87.92-36C230.3,110.58,234.46,110.54,238.59,110ZM182.37,218.57A132.29,132.29,0,0,0,170.76,230a42.38,42.38,0,0,0-5.82,6.59c-3.38,4-6.53,8.19-9.53,12.48-1.35,2.55-3.25,5.11-2.86,8.17s.25,6.32,1.76,9.11c.66,2.36.89,4.9,2.46,6.9,2.12-4.35,2.83-9.18,4.8-13.58a128.26,128.26,0,0,1,5.81-14.82c2.8-5,4.76-10.61,8.51-15.06a35,35,0,0,0,4.11-5.52c1.67-2.75,3.78-5.17,5.66-7.76A12.35,12.35,0,0,0,182.37,218.57Z"/><path class="cls-7" d="M248.74,171c2.52-1.18,5.21.19,7.62,1a57.47,57.47,0,0,1,14.39,8.86c-3.29.12-6.59,0-9.86.4-3.84.46-7.74.3-11.55,1C247.85,178.79,247.07,174.54,248.74,171Z"/><path class="cls-7" d="M202.57,182.33c1.87-1,4.09-.42,6.05,0a72.47,72.47,0,0,1,13.57,5.15c4.11,2.06,8.39,3.86,12.14,6.56,3.66,2.27,7.19,4.75,10.94,6.88a31.36,31.36,0,0,0-10.49-10c-1.87-1.12-3.92-1.9-5.71-3.13,10.4-1.45,20.81-3,31.3-3.76a102.78,102.78,0,0,1,15-.52,16.61,16.61,0,0,1,7.7,2.14,256.45,256.45,0,0,1,26.23,17.84,51.84,51.84,0,0,1,6.65,5.81c1.2,3.67,1,7.68,2.63,11.25.81,2.4,3.28,3.54,5.05,5.13,12.05,9.06,24.46,17.62,36.8,26.27.64,4.45-1.48,8.52-3.28,12.41-.15,5.39.11,10.8-.51,16.17-.45,5.36-1.06,10.93-3.55,15.78-1.46,3.22-6.45,3.33-6.89,7.17,1.51,3.26,3.11,6.94,2,10.57-.8,2.94-3.38,4.8-5.32,7a13.73,13.73,0,0,1-10.51,4.43c-3.32.16-6.45-1.1-9.51-2.19-10.06-4.25-19.51-9.8-29.52-14.14-3.7-1.32-7.57-3.21-11.6-2.38-6.2.94-11.1,5.28-17,7.12-3.44,1.22-7-.57-10-2.17A85.88,85.88,0,0,1,236,295.34a22.81,22.81,0,0,0-2.62,3.26,205.65,205.65,0,0,0-11.06,19.08A37.73,37.73,0,0,1,220,321.9c1.12-9.19,4.47-18,8.83-26.17a104.2,104.2,0,0,1,17.87-24.11,16.06,16.06,0,0,0,1.34-1.51c-4.14,1-7.86,3.28-11.61,5.25-14.18,8.28-26.73,19-38.51,30.39.09.51.19,1,.31,1.53-1.31-1.92,1-3.34,2-4.77a185.67,185.67,0,0,1,18.17-20c7.39-6.84,15.46-13.13,24.58-17.5.83-.45,1.87-.69,2.41-1.54-5.74-.19-11.37,1.16-16.82,2.82a149.32,149.32,0,0,0-25.28,11.37c-7.08,3.7-13.83,8-20.52,12.36a26.69,26.69,0,0,1,3.35-3.29A202.1,202.1,0,0,1,203,272.49c5.3-3.85,10.7-7.76,16.88-10.07,1.31-.58,2.92-1.05,3.54-2.47.37-1-.67-1.62-1.25-2.2-6.59-5.92-13.1-12-19.15-18.45a8.79,8.79,0,0,1-1.94-3.51c-1.35-4.93-1.82-10-2.59-15.06-.87-10.32-1.66-20.89.76-31.07C200,187.07,200.74,184.35,202.57,182.33ZM273.94,190c1.71,2,3.95,3.49,5.83,5.35,6.31,5.15,12.43,10.53,18.73,15.69,1.86,1.83,4.53.43,6.76.36,1.23-.24,2.63-.15,3.68-.93-.41-1.36-1.85-1.93-2.93-2.68-2.68-1.52-4.93-3.68-7.58-5.24-3.56-2.16-6.37-5.46-10.32-7-3-1.72-5.68-4-8.7-5.79A5.51,5.51,0,0,0,273.94,190Zm12.74,32.47a12.55,12.55,0,0,1-.23,4.41,11.11,11.11,0,0,0,.16,6.63c-.48,2.42-.85,5.25,1,7.23a13.69,13.69,0,0,0,9.67,4.17c1.9,4.16,5,7.64,6.84,11.84.59,1.43-1.26,1.88-2.28,1.55-5.7-1.45-10.95-4.27-16.71-5.5a65.81,65.81,0,0,0-24.76-2.42,103.19,103.19,0,0,0-23.69,6.3c2.24-.22,4.37-1,6.58-1.44,12-2.58,24.6-3.58,36.65-.73a49.73,49.73,0,0,1,14.33,5.8c-5.92-.23-11.95-.74-17.78.67-12.52,2.36-23.41,11-29.49,22,6.24-6.08,13.05-11.79,21.06-15.4a42.71,42.71,0,0,1,27.92-3.42c4.12.91,8.5,2.44,12.67,1,.74-.21,1.57-.48,1.85-1.28a8.73,8.73,0,0,0-1.82-8.76c-2.31-2.72-5.1-5-7.56-7.58l-.3-1.49c4-.63,5.07-5.21,5.87-8.56a13,13,0,0,0,1.27-1.08,39.29,39.29,0,0,1-3.66-2.14c-3.08-2-3.82-6.21-7.13-7.92C293.72,224.85,290.16,223.75,286.68,222.47ZM313.84,228c-.85.22-2.3,1.27-1.21,2.13,5,4.56,10.16,8.92,15.2,13.42,2.9,2.18,5.45,5,8.81,6.43a21.14,21.14,0,0,0,2.72-1.19c2.49-1.3,5.38-1.1,8.09-1.47-1.83-2.74-5.17-3.64-7.72-5.49-2.21-1.62-4.67-2.84-6.92-4.4-4.56-3.12-9.06-6.36-13.6-9.52C317.63,226.63,315.54,227.5,313.84,228Zm29.55,25.88a2.39,2.39,0,0,0-1.84,2.62c3,.95,5.93-1.08,8.89-.09,3.22,1.09,5.07,4.3,6.29,7.27,1.23-1.88,1.12-4.26,1.13-6.42s-.68-4.61-2.78-5.44C351.06,250.93,347.14,252.63,343.39,253.87Z"/><path class="cls-7" d="M199.42,284.54a323,323,0,0,1,30.43-14.75,137.37,137.37,0,0,0-27.92,25.31,98.31,98.31,0,0,0-11.51,17.48c-.83,1.51-1.35,3.21-2.51,4.52a119.86,119.86,0,0,1-18.45-13.7C178.9,296.3,189.12,290.29,199.42,284.54Z"/><path class="cls-7" d="M222.52,289.37c3.32-2.47,6.48-5.17,10-7.38a103.77,103.77,0,0,0-16.88,46.23,103.65,103.65,0,0,1-20.82-7.54,9.74,9.74,0,0,1-3.27-2,54.17,54.17,0,0,0,4-4.2A214.08,214.08,0,0,1,222.52,289.37Z"/><path class="cls-7" d="M220.72,329.42a126,126,0,0,1,15.72-26.53c3.77,3.87,7.54,7.8,12,10.94a55.21,55.21,0,0,0,.2,14.3,109.13,109.13,0,0,0,48-12.56c1.69-1.22,3.39.64,4.92,1.32C283.39,327.7,262,332.41,241,332A127.55,127.55,0,0,1,220.72,329.42Z"/><path class="cls-6" d="M188.42,129a164.28,164.28,0,0,1,48.74-9.55,105.46,105.46,0,0,1,17.77.18,162.66,162.66,0,0,1,56.81,13.7c19,8.68,36.43,21.08,50.05,37a127.56,127.56,0,0,1,16,23.77,60.91,60.91,0,0,1,3.77,8.46c-15,.12-29.95,0-44.92.05-3.24,0-6.49.09-9.73-.09a8.52,8.52,0,0,0,4.23-7.53c.32-2.88-1.29-5.5-3-7.7-16.24-17.44-38.59-28.67-62-32.75a122.55,122.55,0,0,0-55.37,2.83c-22.78,6.51-43.8,20.22-57.55,39.69a81.68,81.68,0,0,0-3.07,91.39,108,108,0,0,0,13.62,17.26,17.6,17.6,0,0,0-2.46,4.18c1.24-1,2.43-2.14,3.75-3.07A93.87,93.87,0,0,0,186,322.11c-.08,2.1-1.1,4-1.49,6.06,1.18-1.54,2.31-3.12,3.42-4.71a125,125,0,0,0,25.27,9.88c.64.28,2,.25,1.78,1.32,0,2.86-.13,5.72-.18,8.58,1.35-2.8,2.2-5.81,3.54-8.61,25.54,5.42,52.94,2.95,76.69-8.12,4.4-1.74,8.29-4.52,12.51-6.59,6.79,3,13.32,6.93,20.66,8.56a19.93,19.93,0,0,0,10.69-.76,26.71,26.71,0,0,0,10.21-8.57c2.06-2.77,2.35-6.43,1.92-9.75-.18-2-.86-3.89-1-5.88.71-1.23,2.38-1.57,3.38-2.57,3.75-3.29,4.81-8.46,5.73-13.13.2-.62.1-1.87,1.1-1.7,7.27-.05,14.55-.11,21.82,0-3.32,9.22-8.49,17.66-14.06,25.68-18.39,25.18-45.73,43.1-75.46,52A163.74,163.74,0,0,1,241,370.65a161.24,161.24,0,0,1-52.26-9.5c-21.37-7.74-41.21-20.1-56.83-36.69a118.73,118.73,0,0,1-29.34-52.34c-.69-2.39-.94-4.9-1.94-7.19a41.57,41.57,0,0,0-21.7-20.28c0-.16-.07-.47-.09-.63a40.59,40.59,0,0,0,20.15-17,24.44,24.44,0,0,0,3-6.74,116.27,116.27,0,0,1,20.36-43.53C138.92,154.68,162.52,138.31,188.42,129Z"/><path class="cls-6" d="M273.94,190a5.51,5.51,0,0,1,5.47-.22c3,1.75,5.67,4.07,8.7,5.79,3.95,1.52,6.76,4.82,10.32,7,2.65,1.56,4.9,3.72,7.58,5.24,1.08.75,2.52,1.32,2.93,2.68-1.05.78-2.45.69-3.68.93-2.23.07-4.9,1.47-6.76-.36-6.3-5.16-12.42-10.54-18.73-15.69C277.89,193.49,275.65,192,273.94,190Z"/><path class="cls-6" d="M182.37,218.57a12.35,12.35,0,0,1,3.29-2c-1.88,2.59-4,5-5.66,7.76a35,35,0,0,1-4.11,5.52c-3.75,4.45-5.71,10-8.51,15.06a128.26,128.26,0,0,0-5.81,14.82c-2,4.4-2.68,9.23-4.8,13.58-1.57-2-1.8-4.54-2.46-6.9-1.51-2.79-1.33-6.05-1.76-9.11s1.51-5.62,2.86-8.17c3-4.29,6.15-8.48,9.53-12.48a42.38,42.38,0,0,1,5.82-6.59A132.29,132.29,0,0,1,182.37,218.57Z"/><path class="cls-6" d="M313.84,228c1.7-.49,3.79-1.36,5.37-.09,4.54,3.16,9,6.4,13.6,9.52,2.25,1.56,4.71,2.78,6.92,4.4,2.55,1.85,5.89,2.75,7.72,5.49-2.71.37-5.6.17-8.09,1.47a21.14,21.14,0,0,1-2.72,1.19c-3.36-1.47-5.91-4.25-8.81-6.43-5-4.5-10.22-8.86-15.2-13.42C311.54,229.26,313,228.21,313.84,228Z"/><path class="cls-6" d="M286.61,233.51a5.51,5.51,0,0,0,2.43,2.57,61.44,61.44,0,0,0,7.07,2.67,17.24,17.24,0,0,0,1.13,6.16,13.69,13.69,0,0,1-9.67-4.17C285.76,238.76,286.13,235.93,286.61,233.51Z"/><path class="cls-6" d="M302.76,239.67a13,13,0,0,0,3.86-2.14c-.8,3.35-1.84,7.93-5.87,8.56l.3,1.49c-2.1-2.2-3.74-5.09-3.28-8.24A22.57,22.57,0,0,0,302.76,239.67Z"/></svg>